<svg width="186" height="91" viewBox="0 0 186 91" fill="none" xmlns="http://www.w3.org/2000/svg">
<path d="M39.6536 27.002H41.6959C42.2696 27.002 42.7346 27.467 42.7346 28.0407V34.5787H39.6536C38.7894 34.5787 38.0889 33.8781 38.0889 33.0139V28.5668C38.0889 27.7025 38.7894 27.002 39.6536 27.002Z" fill="#868686"/>
<path d="M44.7827 33.6738C45.033 33.6738 45.2356 33.8769 45.2356 34.1272C45.2356 34.3774 45.033 34.5801 44.7827 34.5801H42.7344V33.6738H44.7827Z" fill="#58595B"/>
<path d="M96.3169 63.6289C96.3169 63.1989 96.3372 62.7742 96.3753 62.3555C96.3879 62.2148 96.4143 62.0784 96.4312 61.9394C96.4645 61.6644 96.4961 61.3882 96.5455 61.1193C96.5749 60.9574 96.6178 60.8015 96.6533 60.6422C96.7061 60.4023 96.7559 60.1611 96.8209 59.9273C96.8672 59.7606 96.9256 59.6 96.9785 59.4363C97.0486 59.2181 97.1153 58.9981 97.1958 58.786C97.285 58.5504 97.3859 58.3223 97.4876 58.0941C97.5361 57.9854 97.579 57.8728 97.6301 57.7659C97.7894 57.4334 97.9609 57.1095 98.1457 56.7964C98.1579 56.7756 98.1726 56.7566 98.1851 56.7358C98.3592 56.4449 98.5432 56.1625 98.7385 55.8906C98.809 55.7919 98.8874 55.7006 98.9606 55.604C99.1108 55.4074 99.2606 55.21 99.4213 55.0247C99.4498 54.9918 99.4793 54.9597 99.5078 54.9272C99.7239 54.6835 99.9482 54.4492 100.182 54.2267C100.211 54.1985 100.242 54.1717 100.271 54.144C100.508 53.9227 100.753 53.7119 101.007 53.5144C101.037 53.4915 101.067 53.4698 101.096 53.4473C101.354 53.2507 101.619 53.065 101.892 52.894C101.92 52.8762 101.95 52.8598 101.978 52.8424C102.255 52.6723 102.539 52.5142 102.831 52.3718C102.857 52.3592 102.883 52.348 102.909 52.3354C103.206 52.1938 103.509 52.0652 103.819 51.954C103.841 51.9462 103.863 51.9397 103.884 51.9323C104.2 51.8215 104.522 51.7253 104.849 51.6478C104.866 51.6439 104.883 51.6409 104.9 51.637C105.233 51.5599 105.573 51.4993 105.917 51.4591C105.927 51.4578 105.936 51.4577 105.945 51.4565C106.298 51.4162 106.655 51.3945 107.017 51.3945H100.803C100.441 51.3945 100.084 51.4162 99.7313 51.4565C99.7217 51.4577 99.7122 51.4578 99.7031 51.4591C99.3589 51.4993 99.0195 51.5599 98.6856 51.637C98.6688 51.6409 98.6519 51.6435 98.635 51.6478C98.3077 51.7253 97.9864 51.8215 97.6703 51.9323C97.6487 51.9401 97.6266 51.9462 97.605 51.954C97.2954 52.0652 96.9923 52.1934 96.6953 52.3354C96.6693 52.348 96.6429 52.3592 96.6169 52.3718C96.3255 52.5138 96.0415 52.6723 95.764 52.8424C95.7354 52.8598 95.7064 52.8762 95.6783 52.894C95.4055 53.065 95.141 53.2503 94.8829 53.4469C94.853 53.4698 94.8227 53.4915 94.7929 53.5144C94.5391 53.7123 94.2945 53.9227 94.0568 54.144C94.0269 54.1717 93.9971 54.1985 93.9676 54.2267C93.7343 54.4488 93.51 54.683 93.2939 54.9268C93.2649 54.9597 93.2355 54.9918 93.2065 55.0251C93.1779 55.058 93.1476 55.0896 93.1194 55.1234C92.9896 55.2767 92.8705 55.4416 92.7475 55.6027C92.6735 55.6997 92.5951 55.7915 92.5237 55.8911C92.3297 56.1621 92.1466 56.4431 91.9734 56.7323C91.96 56.7544 91.9448 56.7748 91.9314 56.7969C91.7465 57.1095 91.5755 57.4338 91.4157 57.7659C91.3646 57.8728 91.3218 57.9854 91.2733 58.0941C91.1837 58.2954 91.0901 58.4937 91.0096 58.7011C90.9992 58.7284 90.9918 58.7578 90.9815 58.7851C90.9009 58.9977 90.8338 59.2181 90.7637 59.4368C90.7113 59.6004 90.6528 59.7602 90.6065 59.9265C90.5411 60.1607 90.4918 60.4023 90.4385 60.6422C90.4035 60.8015 90.3606 60.957 90.3311 61.1185C90.2818 61.3878 90.2506 61.6636 90.2168 61.939C90.2 62.0784 90.174 62.2143 90.161 62.3551C90.1229 62.7738 90.1025 63.1985 90.1025 63.6285C90.1025 70.3691 94.9024 75.8572 100.802 75.8572H107.016C101.117 75.8576 96.3169 70.3696 96.3169 63.6289Z" fill="#58595B"/>
<path d="M107.015 51.3965C112.91 51.3965 117.71 56.8845 117.71 63.6304C117.71 70.3711 112.91 75.8591 107.015 75.8591C101.115 75.8591 96.3154 70.3711 96.3154 63.6304C96.3154 56.8845 101.115 51.3965 107.015 51.3965Z" fill="#404041"/>
<path d="M20.8617 63.6289C20.8617 63.1989 20.8821 62.7742 20.9202 62.3555C20.9331 62.2148 20.9591 62.0784 20.976 61.9394C21.0093 61.6644 21.041 61.3882 21.0903 61.1193C21.1202 60.9574 21.1626 60.8015 21.1981 60.6422C21.2509 60.4023 21.3007 60.1611 21.3657 59.9273C21.412 59.7606 21.4705 59.6 21.5233 59.4363C21.5934 59.2181 21.6601 58.9981 21.7406 58.786C21.8298 58.5504 21.9307 58.3223 22.0324 58.0941C22.0809 57.9854 22.1238 57.8728 22.1749 57.7659C22.3342 57.4334 22.5057 57.1095 22.6906 56.7964C22.7027 56.7756 22.7174 56.7566 22.7299 56.7358C22.904 56.4449 23.088 56.1625 23.2833 55.8906C23.3539 55.7919 23.4322 55.7006 23.5054 55.604C23.6556 55.4074 23.8054 55.21 23.9661 55.0247C23.9946 54.9918 24.0237 54.9597 24.0527 54.9272C24.2687 54.6835 24.493 54.4492 24.7268 54.2267C24.7562 54.1985 24.7865 54.1717 24.8164 54.144C25.0537 53.9227 25.2987 53.7119 25.5525 53.5144C25.5819 53.4915 25.6118 53.4698 25.6416 53.4473C25.8997 53.2507 26.1642 53.065 26.4374 52.894C26.4656 52.8762 26.495 52.8598 26.5236 52.8424C26.8011 52.6723 27.0852 52.5142 27.3765 52.3718C27.4025 52.3592 27.4289 52.348 27.4549 52.3354C27.7519 52.1938 28.0546 52.0652 28.3646 51.954C28.3862 51.9462 28.4083 51.9397 28.4299 51.9323C28.7456 51.8215 29.0673 51.7253 29.3946 51.6478C29.4115 51.6439 29.4284 51.6409 29.4452 51.637C29.7791 51.5599 30.1185 51.4993 30.4627 51.4591C30.4722 51.4578 30.4818 51.4577 30.4909 51.4565C30.8433 51.4162 31.2009 51.3945 31.5624 51.3945H25.3477C24.9857 51.3945 24.6285 51.4162 24.2761 51.4565C24.2665 51.4577 24.257 51.4578 24.2479 51.4591C23.9037 51.4993 23.5643 51.5599 23.2305 51.637C23.2136 51.6409 23.1967 51.6435 23.1798 51.6478C22.8525 51.7253 22.5312 51.8215 22.2152 51.9323C22.1935 51.9401 22.1714 51.9462 22.1498 51.954C21.8402 52.0652 21.5371 52.1934 21.2401 52.3354C21.2141 52.348 21.1877 52.3592 21.1618 52.3718C20.8704 52.5138 20.5863 52.6723 20.3088 52.8424C20.2802 52.8598 20.2512 52.8762 20.2226 52.894C19.9499 53.065 19.6853 53.2503 19.4273 53.4469C19.3974 53.4698 19.3671 53.4915 19.3372 53.5144C19.0835 53.7123 18.8389 53.9227 18.6012 54.144C18.5718 54.1717 18.5414 54.1985 18.512 54.2267C18.2786 54.4488 18.0544 54.683 17.8383 54.9268C17.8093 54.9597 17.7799 54.9918 17.7508 55.0251C17.7223 55.058 17.692 55.0896 17.6638 55.1234C17.5339 55.2767 17.4149 55.4416 17.2919 55.6027C17.2179 55.6997 17.1395 55.7915 17.0681 55.8911C16.8741 56.1621 16.6909 56.4431 16.5173 56.7323C16.5039 56.7544 16.4888 56.7748 16.4753 56.7969C16.2905 57.1095 16.1194 57.4338 15.9597 57.7659C15.9086 57.8728 15.8657 57.9854 15.8172 58.0941C15.7276 58.2954 15.6336 58.4937 15.5535 58.7011C15.5432 58.7284 15.5358 58.7578 15.5254 58.7851C15.4449 58.9977 15.3778 59.2181 15.3076 59.4368C15.2552 59.6004 15.1968 59.7602 15.1505 59.9265C15.0851 60.1607 15.0357 60.4023 14.9825 60.6422C14.9474 60.8015 14.9045 60.957 14.8751 61.1185C14.8257 61.3878 14.7946 61.6636 14.7608 61.939C14.7439 62.0784 14.7179 62.2143 14.7049 62.3551C14.6668 62.7738 14.6465 63.1985 14.6465 63.6285C14.6465 70.3691 19.4463 75.8572 25.3459 75.8572H31.5594C25.6616 75.8576 20.8617 70.3696 20.8617 63.6289Z" fill="#58595B"/>
<path d="M31.5617 51.3965C37.457 51.3965 42.2569 56.8845 42.2569 63.6304C42.2569 70.3711 37.457 75.8591 31.5617 75.8591C25.6617 75.8591 20.8623 70.3711 20.8623 63.6304C20.8623 56.8845 25.6622 51.3965 31.5617 51.3965Z" fill="#404041"/>
<path d="M4.87207 63.6289C4.87207 66.1034 6.878 68.1098 9.35283 68.1098H61.4689V63.6289H4.87207Z" fill="#323031"/>
<path d="M60.3223 8.87961L64.9624 2.29525C65.9764 0.856011 67.6273 0 69.3877 0H125.415C127.16 0 128.799 0.841718 129.816 2.26104L134.558 8.88004L60.3223 8.87961Z" fill="#BBBDBF"/>
<path d="M59.3537 8.88064C59.0766 8.88064 58.8016 8.89926 58.5284 8.92827C58.4929 8.93217 58.457 8.93433 58.4215 8.93866C58.1626 8.96983 57.9063 9.01617 57.6525 9.07289C57.6071 9.08285 57.5621 9.09323 57.5166 9.10406C57.2663 9.16511 57.0187 9.23742 56.7749 9.32228C56.7342 9.33657 56.6935 9.35216 56.6528 9.36731C56.4034 9.45911 56.1567 9.56043 55.9159 9.67646C55.8951 9.68642 55.8748 9.69811 55.854 9.7085C55.6141 9.82671 55.3795 9.95704 55.1496 10.0991C55.1301 10.1112 55.1097 10.122 55.0907 10.1341C54.8617 10.2783 54.6391 10.4368 54.4218 10.6039C54.3863 10.6312 54.3499 10.658 54.3148 10.6862C54.1053 10.8524 53.9022 11.0295 53.7052 11.217C53.6697 11.2508 53.6346 11.2854 53.5991 11.3196C53.403 11.5123 53.2125 11.7136 53.0306 11.9267C53.022 11.9371 53.0116 11.9462 53.0029 11.9565C52.9865 11.976 52.9722 11.9985 52.9557 12.0185C52.767 12.2449 52.5847 12.4796 52.4132 12.7277L37.8262 33.8356C37.6565 34.0807 37.4759 34.3127 37.2893 34.537C37.2633 34.5682 37.2382 34.6002 37.2122 34.631C37.0304 34.844 36.8403 35.0454 36.6442 35.2376C36.6091 35.2718 36.5741 35.3064 36.5386 35.3398C36.3411 35.5273 36.1381 35.7052 35.9281 35.8715C35.8939 35.8988 35.8588 35.9247 35.8242 35.9512C35.6059 36.1191 35.383 36.2781 35.1531 36.4231C35.1344 36.4348 35.1154 36.4447 35.0968 36.4564C34.8673 36.5985 34.6322 36.7288 34.3923 36.847C34.3707 36.8578 34.3495 36.8699 34.3274 36.8803C34.0867 36.9968 33.8403 37.0981 33.5909 37.1895C33.5502 37.2046 33.51 37.2202 33.4693 37.2341C33.2255 37.3194 32.9778 37.3917 32.7276 37.4527C32.6821 37.4636 32.6367 37.4739 32.5912 37.4839C32.3375 37.5411 32.0812 37.587 31.8223 37.6186C31.7868 37.6229 31.7508 37.6251 31.7153 37.629C31.4421 37.6584 31.1672 37.677 30.8896 37.677H76.3467C76.6238 37.677 76.8992 37.6584 77.1724 37.629C77.2079 37.6251 77.2438 37.6229 77.2793 37.6186C77.5382 37.587 77.7945 37.5411 78.0483 37.4839C78.0937 37.4735 78.1392 37.4636 78.1846 37.4527C78.4349 37.3917 78.6826 37.3194 78.9263 37.2341C78.967 37.2198 79.0077 37.2042 79.0484 37.189C79.2978 37.0973 79.5437 36.9959 79.7845 36.8799C79.8065 36.8691 79.8277 36.857 79.8498 36.8461C80.0893 36.7279 80.3244 36.5976 80.5538 36.4556C80.5725 36.4443 80.5911 36.4339 80.6097 36.4222C80.8396 36.2776 81.0621 36.1187 81.2803 35.9507C81.3154 35.9239 81.3505 35.8979 81.3851 35.8702C81.5951 35.7035 81.7982 35.526 81.9952 35.3385C82.0307 35.3047 82.0658 35.2705 82.1008 35.2363C82.297 35.0441 82.487 34.8423 82.6689 34.6297C82.678 34.6189 82.6888 34.6098 82.6979 34.5985C82.7148 34.5786 82.7295 34.5556 82.7459 34.5357C82.9325 34.3114 83.1131 34.0798 83.2828 33.8343L97.8699 12.7264C98.0413 12.4783 98.224 12.2432 98.4128 12.0163C98.4379 11.9864 98.4617 11.9552 98.4873 11.9258C98.6695 11.7128 98.8601 11.511 99.0562 11.3179C99.0913 11.2837 99.1263 11.2491 99.1618 11.2153C99.3588 11.0282 99.5619 10.8507 99.7719 10.6844C99.807 10.6567 99.8429 10.6299 99.8784 10.6026C100.096 10.4355 100.318 10.277 100.547 10.1328C100.567 10.1203 100.588 10.1094 100.608 10.0969C100.837 9.9553 101.071 9.82541 101.31 9.70764C101.331 9.69724 101.352 9.68555 101.373 9.67516C101.614 9.55912 101.861 9.4578 102.11 9.36601C102.151 9.35086 102.191 9.33527 102.232 9.32099C102.476 9.23569 102.723 9.16338 102.974 9.10276C103.019 9.09194 103.064 9.08155 103.11 9.07159C103.363 9.01443 103.62 8.96854 103.879 8.93736C103.914 8.93303 103.95 8.93043 103.986 8.92697C104.259 8.89753 104.534 8.87891 104.81 8.87891H59.3537V8.88064Z" fill="#BBBDBF"/>
<path d="M166.303 63.6297H130.428C128.503 63.6297 126.783 62.1831 126.293 60.055C124.913 54.069 120.141 49.6504 114.471 49.6504H150.346C156.016 49.6504 160.788 54.069 162.168 60.055C162.659 62.1831 164.378 63.6297 166.303 63.6297Z" fill="#404041"/>
<mask id="mask0_1882_8410" style="mask-type:luminance" maskUnits="userSpaceOnUse" x="114" y="49" width="53" height="15">
<path d="M166.303 63.6297H130.428C128.503 63.6297 126.783 62.1831 126.293 60.055C124.913 54.069 120.141 49.6504 114.471 49.6504H150.346C156.016 49.6504 160.788 54.069 162.168 60.055C162.659 62.1831 164.378 63.6297 166.303 63.6297Z" fill="white"/>
</mask>
<g mask="url(#mask0_1882_8410)">
<path d="M166.303 63.6297H130.428C128.503 63.6297 126.783 62.1831 126.293 60.055C124.913 54.069 120.141 49.6504 114.471 49.6504H150.346C156.016 49.6504 160.788 54.069 162.168 60.055C162.659 62.1831 164.378 63.6297 166.303 63.6297Z" fill="#404041"/>
</g>
<path d="M91.1591 63.6297H45.7021C43.7814 63.6297 42.0578 62.1831 41.5716 60.055C40.187 54.069 35.4196 49.6504 29.749 49.6504H75.2061C80.8766 49.6504 85.6444 54.069 87.0286 60.055C87.5149 62.1831 89.2385 63.6297 91.1591 63.6297Z" fill="#404041"/>
<mask id="mask1_1882_8410" style="mask-type:luminance" maskUnits="userSpaceOnUse" x="29" y="49" width="63" height="15">
<path d="M91.1591 63.6297H45.7021C43.7814 63.6297 42.0578 62.1831 41.5716 60.055C40.187 54.069 35.4196 49.6504 29.749 49.6504H75.2061C80.8766 49.6504 85.6444 54.069 87.0286 60.055C87.5149 62.1831 89.2385 63.6297 91.1591 63.6297Z" fill="white"/>
</mask>
<g mask="url(#mask1_1882_8410)">
<path d="M91.1591 63.6297H45.7021C43.7814 63.6297 42.0578 62.1831 41.5716 60.055C40.187 54.069 35.4196 49.6504 29.749 49.6504H75.2061C80.8766 49.6504 85.6444 54.069 87.0286 60.055C87.5149 62.1831 89.2385 63.6297 91.1591 63.6297Z" fill="#404041"/>
</g>
<path d="M12.6138 37.6782C12.3056 37.6782 12.0007 37.6968 11.7003 37.7319C11.5998 37.7435 11.5024 37.7682 11.4028 37.7838C11.2054 37.815 11.0071 37.8431 10.8136 37.889C10.6962 37.9167 10.5832 37.9579 10.4676 37.9908C10.297 38.0397 10.1247 38.0839 9.95802 38.1441C9.83765 38.1874 9.72292 38.2432 9.60515 38.2917C9.44885 38.3567 9.29082 38.4168 9.13885 38.4913C9.02065 38.5493 8.90808 38.6186 8.79248 38.6823C8.64743 38.7619 8.50022 38.8377 8.35994 38.9265C8.24564 38.9983 8.13783 39.0806 8.02656 39.1581C7.89191 39.2516 7.75552 39.3421 7.62607 39.4434C7.51739 39.5283 7.41564 39.6227 7.31043 39.7132C7.18661 39.8197 7.06061 39.9232 6.94198 40.0371C6.84023 40.1345 6.74541 40.2406 6.64756 40.3432C6.53456 40.4614 6.41982 40.5774 6.31202 40.7021C6.29556 40.7212 6.27695 40.7376 6.26093 40.7571C6.15268 40.8848 6.05397 41.0217 5.95179 41.1555C5.89161 41.2347 5.82753 41.3096 5.76908 41.3906C5.60325 41.6222 5.44608 41.8621 5.29844 42.1102C5.29281 42.1201 5.28589 42.1288 5.28026 42.1383C5.12742 42.3968 4.98627 42.6648 4.85465 42.9393C4.81222 43.0277 4.77672 43.1212 4.73689 43.2113C4.66328 43.3762 4.58621 43.5395 4.5204 43.7096C4.51131 43.733 4.50525 43.7581 4.49616 43.7815C4.42991 43.9568 4.37449 44.1378 4.31691 44.318C4.27318 44.4539 4.22512 44.5868 4.18659 44.7254C4.1329 44.9189 4.09177 45.1185 4.04804 45.3164C4.01903 45.4485 3.98353 45.5771 3.95928 45.7113C3.91858 45.9347 3.89217 46.1642 3.86446 46.3928C3.85061 46.5076 3.82939 46.6193 3.819 46.7349C3.78739 47.0817 3.77051 47.4328 3.77051 47.7892V63.6294H49.2276V47.7892C49.2276 47.4333 49.2444 47.0817 49.2761 46.7349C49.2864 46.618 49.3081 46.5054 49.3219 46.3898C49.3497 46.1625 49.3756 45.9343 49.4163 45.7117C49.441 45.5766 49.4765 45.4463 49.506 45.3134C49.5493 45.1164 49.5904 44.9181 49.6436 44.7258C49.6822 44.5873 49.7307 44.4539 49.7744 44.3175C49.832 44.1374 49.8874 43.9564 49.9536 43.7815C50.0272 43.5871 50.1104 43.3992 50.1939 43.2113C50.2342 43.1212 50.2693 43.0281 50.3117 42.9393C50.4433 42.6644 50.5849 42.3968 50.7373 42.1383C50.7429 42.1288 50.7499 42.1197 50.7555 42.1102C50.9031 41.8621 51.0603 41.6222 51.2261 41.3906C51.2837 41.31 51.3474 41.2356 51.4071 41.1572C51.5249 41.0026 51.6435 40.848 51.7691 40.7017C51.876 40.5774 51.9907 40.4618 52.1029 40.344C52.2012 40.241 52.2964 40.1345 52.3986 40.0366C52.5168 39.9236 52.6424 39.8201 52.7658 39.7141C52.871 39.6231 52.9736 39.5283 53.0827 39.443C53.2121 39.3417 53.3481 39.2516 53.4823 39.1581C53.5936 39.0806 53.7018 38.9979 53.8161 38.926C53.9568 38.8377 54.1036 38.7619 54.2487 38.6818C54.3643 38.6182 54.4768 38.5489 54.595 38.4909C54.747 38.4164 54.905 38.3562 55.0613 38.2913C55.1791 38.2423 55.2943 38.1865 55.4142 38.1436C55.5809 38.0839 55.7528 38.0393 55.9234 37.9903C56.039 37.9574 56.152 37.9163 56.2693 37.8886C56.4624 37.8427 56.6607 37.8146 56.8586 37.7834C56.9582 37.7678 57.0551 37.7435 57.156 37.7314C57.4565 37.6963 57.7609 37.6777 58.0696 37.6777L12.6138 37.6782Z" fill="#C52031"/>
<path d="M4.84902 42.9531C4.80919 43.0376 4.77499 43.1259 4.73689 43.2112C4.66328 43.3761 4.58621 43.5394 4.5204 43.7095C4.51131 43.7329 4.50525 43.758 4.49616 43.7814C4.42991 43.9568 4.37449 44.1378 4.31691 44.3179C4.27318 44.4538 4.22512 44.5868 4.18659 44.7253C4.1329 44.9189 4.09177 45.1185 4.04804 45.3163C4.01903 45.4484 3.98353 45.577 3.95928 45.7112C3.91858 45.9346 3.89217 46.1641 3.86446 46.3927C3.85061 46.5075 3.82939 46.6192 3.819 46.7348C3.78739 47.0816 3.77051 47.4328 3.77051 47.7891V60.8353H49.2276V47.7891C49.2276 47.4332 49.2444 47.0816 49.276 46.7348C49.2864 46.6179 49.3081 46.5053 49.3219 46.3897C49.3497 46.1624 49.3756 45.9342 49.4163 45.7117C49.441 45.5766 49.4765 45.4462 49.506 45.3133C49.5493 45.1163 49.5904 44.918 49.6436 44.7258C49.6822 44.5872 49.7307 44.4538 49.7744 44.3174C49.832 44.1373 49.8874 43.9563 49.9536 43.7814C50.0272 43.587 50.1104 43.3991 50.1939 43.2112C50.232 43.1254 50.2662 43.0376 50.3061 42.9531H4.84902Z" fill="#404041"/>
<path d="M64.2842 63.6289C64.2842 63.1989 64.3046 62.7742 64.3427 62.3555C64.3557 62.2148 64.3817 62.0784 64.3985 61.9394C64.4319 61.6644 64.4635 61.3882 64.5128 61.1193C64.5423 60.9574 64.5851 60.8015 64.6206 60.6422C64.6735 60.4023 64.7233 60.1611 64.7882 59.9273C64.8345 59.7606 64.893 59.6 64.9458 59.4363C65.0159 59.2181 65.0826 58.9981 65.1631 58.786C65.2523 58.5504 65.3532 58.3223 65.455 58.0941C65.5035 57.9854 65.5463 57.8728 65.5974 57.7659C65.7567 57.4334 65.9282 57.1095 66.1131 56.7964C66.1252 56.7756 66.1399 56.7566 66.1525 56.7358C66.3265 56.4449 66.5105 56.1625 66.7058 55.8906C66.7764 55.7919 66.8547 55.7006 66.9279 55.604C67.0782 55.4074 67.228 55.21 67.3886 55.0247C67.4172 54.9918 67.4462 54.9597 67.4752 54.9272C67.6912 54.6835 67.9155 54.4492 68.1493 54.2267C68.1788 54.1985 68.2091 54.1717 68.2389 54.144C68.4762 53.9227 68.7213 53.7119 68.975 53.5144C69.0044 53.4915 69.0343 53.4698 69.0642 53.4473C69.3222 53.2507 69.5872 53.065 69.86 52.894C69.8881 52.8762 69.9176 52.8598 69.9461 52.8424C70.2237 52.6723 70.5077 52.5142 70.7991 52.3718C70.825 52.3592 70.8515 52.348 70.8774 52.3354C71.1744 52.1938 71.4771 52.0652 71.7871 51.954C71.8087 51.9462 71.8308 51.9397 71.8525 51.9323C72.1681 51.8215 72.4898 51.7253 72.8171 51.6478C72.834 51.6439 72.8509 51.6409 72.8678 51.637C73.2016 51.5599 73.541 51.4993 73.8852 51.4591C73.8948 51.4578 73.9043 51.4577 73.9138 51.4565C74.2663 51.4162 74.6239 51.3945 74.9854 51.3945H68.7715C68.41 51.3945 68.0523 51.4162 67.6999 51.4565C67.6904 51.4577 67.6808 51.4578 67.6713 51.4591C67.3271 51.4993 66.9877 51.5599 66.6539 51.637C66.637 51.6409 66.6201 51.6435 66.6032 51.6478C66.2759 51.7253 65.9542 51.8215 65.6385 51.9323C65.6169 51.9401 65.5948 51.9462 65.5732 51.954C65.2636 52.0652 64.9605 52.1934 64.6635 52.3354C64.6375 52.348 64.6111 52.3592 64.5851 52.3718C64.2938 52.5138 64.0097 52.6723 63.7322 52.8424C63.7036 52.8598 63.6746 52.8762 63.646 52.894C63.3733 53.065 63.1087 53.2503 62.8507 53.4469C62.8208 53.4698 62.7905 53.4915 62.7606 53.5144C62.5069 53.7123 62.2623 53.9227 62.0246 54.144C61.9951 54.1717 61.9648 54.1985 61.9354 54.2267C61.702 54.4488 61.4777 54.683 61.2617 54.9268C61.2327 54.9597 61.2032 54.9918 61.1742 55.0251C61.1457 55.058 61.1154 55.0896 61.0872 55.1234C60.9573 55.2767 60.8383 55.4416 60.7153 55.6027C60.6413 55.6997 60.5629 55.7915 60.4919 55.8911C60.2979 56.1621 60.1148 56.4431 59.9412 56.7323C59.9277 56.7544 59.9126 56.7748 59.8992 56.7969C59.7143 57.1095 59.5433 57.4338 59.3835 57.7659C59.3324 57.8728 59.2895 57.9854 59.241 58.0941C59.1514 58.2954 59.0579 58.4937 58.9774 58.7011C58.967 58.7284 58.9596 58.7578 58.9492 58.7851C58.8687 58.9977 58.8016 59.2181 58.7314 59.4368C58.6791 59.6004 58.6206 59.7602 58.5743 59.9265C58.5089 60.1607 58.4595 60.4023 58.4063 60.6422C58.3712 60.8015 58.3284 60.957 58.2989 61.1185C58.2496 61.3878 58.2184 61.6636 58.1846 61.939C58.1677 62.0784 58.1417 62.2143 58.1288 62.3551C58.0907 62.7738 58.0703 63.1985 58.0703 63.6285C58.0703 70.3691 62.8702 75.8572 68.7698 75.8572H74.9837C69.0841 75.8576 64.2842 70.3696 64.2842 63.6289Z" fill="#404041"/>
<path d="M74.9826 51.3965C80.8779 51.3965 85.6778 56.8845 85.6778 63.6304C85.6778 70.3711 80.8779 75.8591 74.9826 75.8591C69.0826 75.8591 64.2832 70.3711 64.2832 63.6304C64.2828 56.8845 69.0826 51.3965 74.9826 51.3965Z" fill="#58595B"/>
<path d="M75.7839 57.1152C78.6216 57.1152 80.9314 60.0366 80.9314 63.6282C80.9314 67.2167 78.6211 70.1381 75.7839 70.1381C72.9441 70.1381 70.6338 67.2167 70.6338 63.6282C70.6338 60.037 72.9441 57.1152 75.7839 57.1152Z" fill="#808184"/>
<path d="M71.8707 63.6282C71.8707 60.3024 73.8532 57.5556 76.4016 57.1672C76.1986 57.136 75.9929 57.1152 75.7829 57.1152C72.9431 57.1152 70.6328 60.037 70.6328 63.6282C70.6328 67.2167 72.9431 70.1381 75.7829 70.1381C75.9925 70.1381 76.1982 70.1173 76.4016 70.0861C73.8532 69.6981 71.8707 66.9513 71.8707 63.6282Z" fill="#A6A8AB"/>
<path d="M139.739 63.6289C139.739 63.1989 139.759 62.7742 139.797 62.3555C139.81 62.2148 139.836 62.0784 139.853 61.9394C139.886 61.6644 139.918 61.3882 139.967 61.1193C139.997 60.9574 140.04 60.8015 140.075 60.6422C140.128 60.4023 140.178 60.1611 140.243 59.9273C140.289 59.7606 140.348 59.6 140.4 59.4363C140.47 59.2181 140.537 58.9981 140.618 58.786C140.707 58.5504 140.808 58.3223 140.91 58.0941C140.958 57.9854 141.001 57.8728 141.052 57.7659C141.211 57.4334 141.383 57.1095 141.568 56.7964C141.58 56.7756 141.594 56.7566 141.607 56.7358C141.781 56.4449 141.965 56.1625 142.16 55.8906C142.231 55.7919 142.309 55.7006 142.382 55.604C142.533 55.4074 142.682 55.21 142.843 55.0247C142.872 54.9918 142.901 54.9597 142.93 54.9272C143.146 54.6835 143.37 54.4492 143.603 54.2267C143.633 54.1985 143.663 54.1717 143.693 54.144C143.93 53.9227 144.175 53.7119 144.429 53.5144C144.459 53.4915 144.488 53.4698 144.518 53.4473C144.776 53.2507 145.041 53.065 145.314 52.894C145.342 52.8762 145.372 52.8598 145.4 52.8424C145.677 52.6723 145.961 52.5142 146.253 52.3718C146.279 52.3592 146.305 52.348 146.331 52.3354C146.628 52.1938 146.931 52.0652 147.241 51.954C147.262 51.9462 147.284 51.9397 147.306 51.9323C147.622 51.8215 147.943 51.7253 148.271 51.6478C148.288 51.6439 148.305 51.6409 148.321 51.637C148.655 51.5599 148.995 51.4993 149.339 51.4591C149.348 51.4578 149.358 51.4577 149.367 51.4565C149.719 51.4162 150.077 51.3945 150.439 51.3945H144.225C143.863 51.3945 143.506 51.4162 143.153 51.4565C143.144 51.4577 143.134 51.4578 143.125 51.4591C142.781 51.4993 142.441 51.5599 142.108 51.637C142.091 51.6409 142.074 51.6435 142.057 51.6478C141.73 51.7253 141.408 51.8215 141.092 51.9323C141.071 51.9401 141.048 51.9462 141.027 51.954C140.717 52.0652 140.414 52.1934 140.117 52.3354C140.091 52.348 140.065 52.3592 140.039 52.3718C139.747 52.5138 139.463 52.6723 139.186 52.8424C139.157 52.8598 139.128 52.8762 139.1 52.894C138.827 53.065 138.563 53.2503 138.305 53.4469C138.275 53.4698 138.245 53.4915 138.215 53.5144C137.961 53.7123 137.716 53.9227 137.479 54.144C137.449 54.1717 137.419 54.1985 137.389 54.2267C137.156 54.4488 136.932 54.683 136.716 54.9268C136.687 54.9597 136.657 54.9918 136.628 55.0251C136.6 55.058 136.569 55.0896 136.541 55.1234C136.411 55.2767 136.292 55.4416 136.169 55.6027C136.095 55.6997 136.017 55.7915 135.946 55.8911C135.752 56.1621 135.568 56.4431 135.395 56.7323C135.382 56.7544 135.367 56.7748 135.353 56.7969C135.168 57.1095 134.997 57.4338 134.838 57.7659C134.787 57.8728 134.744 57.9854 134.695 58.0941C134.606 58.2954 134.512 58.4937 134.431 58.7011C134.421 58.7284 134.414 58.7578 134.403 58.7851C134.323 58.9977 134.256 59.2181 134.186 59.4368C134.133 59.6004 134.075 59.7602 134.028 59.9265C133.963 60.1607 133.914 60.4023 133.86 60.6422C133.825 60.8015 133.782 60.957 133.753 61.1185C133.704 61.3878 133.672 61.6636 133.639 61.939C133.622 62.0784 133.596 62.2143 133.583 62.3551C133.545 62.7738 133.524 63.1985 133.524 63.6285C133.524 70.3691 138.324 75.8572 144.224 75.8572H150.438C144.538 75.8576 139.739 70.3696 139.739 63.6289Z" fill="#404041"/>
<path d="M150.438 51.3965C156.333 51.3965 161.133 56.8845 161.133 63.6304C161.133 70.3711 156.333 75.8591 150.438 75.8591C144.538 75.8591 139.738 70.3711 139.738 63.6304C139.738 56.8845 144.538 51.3965 150.438 51.3965Z" fill="#58595B"/>
<path d="M151.238 57.1152C154.076 57.1152 156.386 60.0366 156.386 63.6282C156.386 67.2167 154.075 70.1381 151.238 70.1381C148.398 70.1381 146.088 67.2167 146.088 63.6282C146.088 60.037 148.398 57.1152 151.238 57.1152Z" fill="#808184"/>
<path d="M147.325 63.6282C147.325 60.3024 149.307 57.5556 151.856 57.1672C151.653 57.136 151.447 57.1152 151.237 57.1152C148.397 57.1152 146.087 60.037 146.087 63.6282C146.087 67.2167 148.397 70.1381 151.237 70.1381C151.447 70.1381 151.652 70.1173 151.856 70.0861C149.308 69.6981 147.325 66.9513 147.325 63.6282Z" fill="#A6A8AB"/>
<path d="M79.7503 33.0488H43.4371C42.01 33.0488 41.1696 31.4463 41.981 30.2725L52.2068 15.4753C53.0567 14.2456 54.456 13.5117 55.9502 13.5117H90.6074C92.735 13.5117 93.9875 15.9005 92.7778 17.6506L83.4933 31.0856C82.6443 32.3149 81.2449 33.0488 79.7503 33.0488Z" fill="#58595B"/>
<path d="M43.4618 30.9704L53.4568 16.5071C54.0534 15.6442 55.0354 15.1289 56.0849 15.1289H90.0363C91.1005 15.1289 91.727 16.3239 91.1222 17.1994L82.2395 30.0538C81.6428 30.9168 80.6609 31.432 79.6114 31.432H43.7042C43.4665 31.4316 43.3271 31.1653 43.4618 30.9704Z" fill="#ADCDE8"/>
<g filter="url(#filter0_d_1882_8410)">
<path d="M160.964 8.8813C164.132 8.8813 167.057 10.8154 168.634 13.9554L179.952 36.4735C181.029 38.6224 181.382 41.1545 180.938 43.581L177.275 63.6302H166.304C164.379 63.6302 162.66 62.1836 162.169 60.0555C160.79 54.0695 156.017 49.6509 150.347 49.6509C144.676 49.6509 139.909 54.0695 138.524 60.0555C138.039 62.1836 136.315 63.6302 134.394 63.6302H91.1609C89.2403 63.6302 87.5166 62.1836 87.0304 60.0555C85.6458 54.0695 80.8784 49.6509 75.2079 49.6509C69.5373 49.6509 64.7652 54.0695 63.3853 60.0555C62.8947 62.1836 61.1754 63.6302 59.2505 63.6302H49.2295V47.7896C49.2295 42.2071 53.1903 37.6785 58.0724 37.6785H76.3496C79.0543 37.6785 81.6075 36.2631 83.2857 33.8363L97.8727 12.7283C99.5505 10.2963 102.108 8.88086 104.813 8.88086L160.964 8.8813Z" fill="white"/>
</g>
<path d="M180.156 53.0449C181.393 53.0449 182.397 54.1928 182.397 55.6082V61.0646C182.397 62.48 181.393 63.6279 180.156 63.6279H170.313V58.4178C170.313 55.451 172.418 53.0449 175.017 53.0449H180.156Z" fill="#ADADAD"/>
<path d="M13.5264 54.0962V46.8801C13.5264 46.0024 14.2377 45.291 15.1149 45.291H37.7568C38.6345 45.291 39.3458 46.0024 39.3458 46.8801V54.5239L13.5264 54.0962Z" fill="#58595B"/>
<path d="M14.824 54.0962V46.8801C14.824 46.0024 15.5353 45.291 16.4129 45.291H15.1149C14.2373 45.291 13.5264 46.0024 13.5264 46.8801V54.0962L39.3454 54.5239V54.5023L14.824 54.0962Z" fill="#6D6E70"/>
<path d="M45.7438 45.291H41.2946C40.6201 45.291 40.0732 45.8379 40.0732 46.5125V50.3768C40.0732 51.0514 40.6201 51.5983 41.2946 51.5983H45.7438C46.4184 51.5983 46.9652 51.0514 46.9652 50.3768V46.5125C46.9652 45.8379 46.4184 45.291 45.7438 45.291Z" fill="#F1F1F2"/>
<path d="M11.5764 45.291H7.12765C6.45309 45.291 5.90625 45.8379 5.90625 46.5125V50.3768C5.90625 51.0514 6.45309 51.5983 7.12765 51.5983H11.5768C12.2514 51.5983 12.7982 51.0514 12.7982 50.3768V46.5125C12.7978 45.8379 12.2509 45.291 11.5764 45.291Z" fill="#F1F1F2"/>
<path d="M46.9655 50.3768V46.5125C46.9655 45.8379 46.4186 45.291 45.7441 45.291H43.1394C42.4648 45.291 41.918 45.8379 41.918 46.5125V50.3768C41.918 51.0514 42.4648 51.5983 43.1394 51.5983H45.7441C46.4186 51.5983 46.9655 51.0514 46.9655 50.3768Z" fill="#ADCDE8"/>
<path d="M12.7985 50.3768V46.5125C12.7985 45.8379 12.2517 45.291 11.5771 45.291H8.97237C8.29781 45.291 7.75098 45.8379 7.75098 46.5125V50.3768C7.75098 51.0514 8.29781 51.5983 8.97237 51.5983H11.5771C12.2517 51.5983 12.7985 51.0514 12.7985 50.3768Z" fill="#ADCDE8"/>
<path d="M90.0359 15.1289H69.5973L58.8975 31.432H79.611C80.66 31.432 81.6424 30.9168 82.2391 30.0538L91.1218 17.1994C91.7266 16.3239 91.1001 15.1289 90.0359 15.1289Z" fill="#9EBCD6"/>
<path d="M63.5196 59.5508H53.9961V63.6286H59.2488C61.1742 63.6286 62.8931 62.182 63.3836 60.0539C63.423 59.8833 63.475 59.7188 63.5196 59.5508Z" fill="#ADADAD"/>
<path d="M91.16 63.6286H134.393C136.314 63.6286 138.037 62.182 138.523 60.0539C138.563 59.8833 138.615 59.7188 138.659 59.5508H86.8936C86.9386 59.7188 86.9901 59.8833 87.0299 60.0539C87.5157 62.182 89.2394 63.6286 91.16 63.6286Z" fill="#ADADAD"/>
<path d="M162.032 59.5508C162.077 59.7188 162.129 59.8833 162.168 60.0539C162.659 62.182 164.378 63.6286 166.303 63.6286H177.273L178.019 59.5508H162.032Z" fill="#ADADAD"/>
<path d="M88.5063 30.6371L98.6394 16.0754C99.7573 14.469 101.59 13.5117 103.547 13.5117H111.568C112.865 13.5117 113.963 14.4695 114.139 15.755L116.157 30.5046C116.341 31.8503 115.295 33.0492 113.937 33.0492H89.7662C88.5262 33.0492 87.798 31.655 88.5063 30.6371Z" fill="#58595B"/>
<path d="M90.1729 31.3007L100.074 17.0724C100.865 15.9363 102.163 15.2578 103.548 15.2578H111.569C111.99 15.2578 112.352 15.573 112.409 15.9904L114.426 30.74C114.453 30.9335 114.364 31.0682 114.309 31.1314C114.254 31.1946 114.132 31.3003 113.937 31.3003H90.1729V31.3007Z" fill="#9EBCD6"/>
<g opacity="0.4">
<path d="M50.1494 31.432H55.7026L66.2765 15.1289H60.7229L50.1494 31.432Z" fill="white"/>
<path d="M78.7547 15.1289H71.1198L60.5459 31.432H68.1813L78.7547 15.1289Z" fill="white"/>
</g>
<path d="M49.5053 38.5117H11.6281C11.1861 38.5117 10.8271 38.8702 10.8271 39.3127C10.8271 39.7548 11.1856 40.1138 11.6281 40.1138H49.5053C49.9473 40.1138 50.3062 39.7552 50.3062 39.3127C50.3058 38.8702 49.9473 38.5117 49.5053 38.5117Z" fill="#DE3849"/>
<path d="M153.797 29.7709C156.23 27.0444 155.429 22.358 152.008 19.3035C148.586 16.249 143.839 15.9831 141.406 18.7097C138.972 21.4362 139.773 26.1226 143.195 29.1771C146.616 32.2316 151.363 32.4975 153.797 29.7709Z" fill="#DE3849"/>
<path d="M152.853 22.966H148.589L147.618 18.7012H145.075L146.046 22.966H141.781L142.36 25.509H146.625L147.596 29.7738H150.139L149.168 25.509H153.432L152.853 22.966Z" fill="white"/>
<path d="M103.705 57.6304C106.41 57.6304 108.604 55.437 108.604 52.7312C108.604 50.0255 106.41 47.832 103.705 47.832C100.999 47.832 98.8057 50.0255 98.8057 52.7312C98.8057 55.437 100.999 57.6304 103.705 57.6304Z" fill="#DE3849"/>
<path d="M107.364 51.8906H104.546V49.0723H102.866V51.8906H100.048V53.571H102.866V56.3888H104.546V53.571H107.364V51.8906Z" fill="white"/>
<path d="M104.812 8.87961L109.452 2.29525C110.466 0.856011 112.117 0 113.877 0H154.34C156.086 0 157.725 0.841718 158.741 2.26104L164.83 10.8228L104.812 8.87961Z" fill="white"/>
<path d="M78.9394 2.29524C79.9534 0.856005 81.6043 0 83.3647 0H69.3877C67.6273 0 65.9764 0.856005 64.9624 2.29524L60.3223 8.87961H74.2993L78.9394 2.29524Z" fill="#3E6DB4"/>
<path d="M109.698 2.29524C110.712 0.856005 112.363 0 114.123 0H96.4756C94.7151 0 93.0643 0.856005 92.0502 2.29524L87.4102 8.87961H105.058L109.698 2.29524Z" fill="#3E6DB4"/>
<path d="M126.186 6.35888L125.458 3.1232C125.36 2.68805 124.974 2.37891 124.528 2.37891H120.46C120.001 2.37891 119.66 2.80453 119.761 3.25223L120.488 6.48791C120.586 6.92306 120.972 7.23221 121.418 7.23221H125.486C125.946 7.23221 126.287 6.80659 126.186 6.35888Z" fill="#D0D2D3"/>
<path d="M135.432 6.35888L134.704 3.1232C134.606 2.68805 134.22 2.37891 133.774 2.37891H129.706C129.247 2.37891 128.906 2.80453 129.007 3.25223L129.734 6.48791C129.832 6.92306 130.218 7.23221 130.664 7.23221H134.732C135.192 7.23221 135.533 6.80659 135.432 6.35888Z" fill="#D0D2D3"/>
<path d="M147.588 6.35888L146.861 3.1232C146.763 2.68805 146.377 2.37891 145.931 2.37891H141.863C141.404 2.37891 141.064 2.80453 141.164 3.25223L141.892 6.48791C141.989 6.92306 142.376 7.23221 142.822 7.23221H146.89C147.349 7.23221 147.689 6.80659 147.588 6.35888Z" fill="#D0D2D3"/>
<path d="M156.833 6.35888L156.106 3.1232C156.008 2.68805 155.622 2.37891 155.175 2.37891H151.107C150.648 2.37891 150.308 2.80453 150.408 3.25223L151.136 6.48791C151.234 6.92306 151.62 7.23221 152.066 7.23221H156.134C156.593 7.23221 156.934 6.80659 156.833 6.35888Z" fill="#D0D2D3"/>
<path d="M115.473 0.0367998C115.271 0.0138517 115.066 0 114.86 0H113.877C112.117 0 110.466 0.856005 109.452 2.29524L104.812 8.87961H116.214L115.473 0.0367998Z" fill="#2C5697"/>
<g opacity="0.4">
<path d="M94.4639 31.3003H100.017L110.286 15.2578H104.733L94.4639 31.3003Z" fill="white"/>
<path d="M114.149 28.7165L112.805 18.8887L104.86 31.3001H112.496L114.149 28.7165Z" fill="white"/>
</g>
<path d="M114.89 8.92632L119.453 37.6781V59.5515H120.035L120.032 37.6326L115.472 8.88086H115.177L114.89 8.92632Z" fill="#ADADAD"/>
<path d="M84.7174 37.6788V54.8565C84.9213 55.1453 85.1153 55.4436 85.2993 55.7506L85.2963 37.6329L84.4312 32.1777L83.9541 32.8679L84.7174 37.6788Z" fill="#ADADAD"/>
<path d="M49.416 45.5199H180.547L180.938 43.3805C181.303 41.3931 181.123 39.3386 180.458 37.4785H76.3491H58.0719C53.8102 37.4785 50.2521 40.9298 49.416 45.5199Z" fill="#DE3849"/>
<path d="M120.034 37.4805H119.455V45.5218H120.034V37.4805Z" fill="#C52031"/>
<path d="M85.299 37.4805H84.7197V45.5218H85.299V37.4805Z" fill="#C52031"/>
<path d="M167.418 12.0858C165.766 10.0681 163.441 8.88086 160.963 8.88086H104.811C102.356 8.88086 100.023 10.0508 98.3584 12.0858H167.418Z" fill="#DE3849"/>
<path d="M58.53 8.92849C58.4945 8.93238 58.4586 8.93454 58.4231 8.93887C58.1642 8.97005 57.9079 9.01638 57.6541 9.0731C57.6087 9.08306 57.5637 9.09345 57.5182 9.10427C57.2679 9.16533 57.0203 9.23763 56.7765 9.3225C56.7358 9.33679 56.6951 9.35237 56.6544 9.36753C56.405 9.45932 56.1583 9.56064 55.9175 9.67668C55.8967 9.68664 55.8764 9.69833 55.8556 9.70872C55.6157 9.82692 55.3811 9.95725 55.1512 10.0993C55.1317 10.1114 55.1113 10.1222 55.0923 10.1343C54.8633 10.2785 54.6407 10.437 54.4234 10.6041C54.3879 10.6314 54.3515 10.6583 54.3164 10.6864C54.1069 10.8527 53.9038 11.0298 53.7068 11.2172C53.6713 11.251 53.6362 11.2856 53.6007 11.3198C53.4046 11.5125 53.2141 11.7139 53.0322 11.9269C53.0236 11.9373 53.0132 11.9464 53.0045 11.9568C52.9881 11.9762 52.9738 11.9988 52.9573 12.0187C52.9396 12.0399 52.924 12.0641 52.9062 12.0858H98.3633C98.3811 12.0641 98.3971 12.0399 98.4148 12.0182C98.4399 11.9884 98.4638 11.9572 98.4893 11.9278C98.6716 11.7147 98.8621 11.513 99.0582 11.3198C99.0933 11.2856 99.1284 11.251 99.1639 11.2172C99.3609 11.0302 99.5639 10.8527 99.7739 10.6864C99.809 10.6587 99.8449 10.6318 99.8804 10.6046C100.098 10.4374 100.32 10.279 100.549 10.1348C100.569 10.1222 100.59 10.1114 100.61 10.0988C100.839 9.95725 101.073 9.82736 101.312 9.70959C101.333 9.6992 101.354 9.6875 101.375 9.67711C101.616 9.56107 101.863 9.45976 102.112 9.36796C102.153 9.35281 102.193 9.33722 102.234 9.32293C102.478 9.23764 102.725 9.16533 102.976 9.10471C103.021 9.09389 103.066 9.08349 103.112 9.07353C103.365 9.01638 103.622 8.97048 103.881 8.93931C103.916 8.93498 103.952 8.93238 103.988 8.92892C104.261 8.89947 104.536 8.88086 104.812 8.88086H59.3553C59.0782 8.88086 58.8032 8.89904 58.53 8.92849Z" fill="#C52031"/>
<path d="M75.1709 7.64258H61.1939L60.3232 8.87875H74.3002L75.1709 7.64258Z" fill="#BBBDBF"/>
<path d="M87.4092 8.87875H105.057H116.213L116.109 7.64258H88.2799L87.4092 8.87875Z" fill="#BBBDBF"/>
<path d="M107.288 0.876953H94.9609C94.6124 0.876953 94.3301 1.15926 94.3301 1.50781C94.3301 1.85636 94.6124 2.13867 94.9609 2.13867H107.288C107.636 2.13867 107.919 1.85636 107.919 1.50781C107.919 1.15926 107.636 0.876953 107.288 0.876953Z" fill="#5D87C5"/>
<path d="M90.9626 0.570312H82.0976C81.7491 0.570312 81.4668 0.852618 81.4668 1.20117C81.4668 1.54972 81.7491 1.83202 82.0976 1.83202H90.9626C91.3111 1.83202 91.5934 1.54972 91.5934 1.20117C91.5934 0.852618 91.3107 0.570312 90.9626 0.570312Z" fill="#E6E7E8"/>
<path d="M77.4784 0.876953H67.5332C67.1846 0.876953 66.9023 1.15926 66.9023 1.50781C66.9023 1.85636 67.1846 2.13867 67.5332 2.13867H77.4784C77.8269 2.13867 78.1092 1.85636 78.1092 1.50781C78.1092 1.15926 77.8265 0.876953 77.4784 0.876953Z" fill="#5D87C5"/>
<path d="M126.305 42.495L125.74 40.8966C125.706 40.8126 125.67 40.7142 125.632 40.6014C125.596 40.4886 125.561 40.3662 125.527 40.2342C125.494 40.3686 125.458 40.4934 125.419 40.6086C125.383 40.7214 125.348 40.8198 125.315 40.9038L124.753 42.495H126.305ZM128.119 44.4785H127.28C127.187 44.4785 127.11 44.4569 127.05 44.4137C126.992 44.3681 126.949 44.3105 126.92 44.2409L126.567 43.2438H124.487L124.134 44.2409C124.11 44.3009 124.068 44.3561 124.008 44.4065C123.948 44.4545 123.872 44.4785 123.781 44.4785H122.935L124.976 39.2551H126.082L128.119 44.4785ZM134.362 39.2551V44.4785H133.408V41.271C133.408 41.2038 133.41 41.1318 133.412 41.055C133.417 40.9782 133.424 40.9002 133.434 40.821L131.94 43.6541C131.858 43.8101 131.732 43.8881 131.562 43.8881H131.41C131.326 43.8881 131.252 43.8689 131.187 43.8305C131.122 43.7897 131.071 43.7309 131.032 43.6541L129.531 40.8102C129.538 40.8942 129.544 40.9758 129.549 41.055C129.554 41.1318 129.556 41.2038 129.556 41.271V44.4785H128.603V39.2551H129.423C129.469 39.2551 129.51 39.2563 129.546 39.2587C129.582 39.2611 129.613 39.2683 129.639 39.2803C129.668 39.2899 129.693 39.3067 129.715 39.3307C129.739 39.3523 129.762 39.3835 129.783 39.4243L131.245 42.2106C131.29 42.2946 131.332 42.381 131.371 42.4698C131.412 42.5586 131.45 42.6498 131.486 42.7434C131.522 42.6474 131.559 42.5538 131.598 42.4626C131.638 42.3714 131.682 42.2838 131.727 42.1998L133.178 39.4243C133.2 39.3835 133.222 39.3523 133.246 39.3307C133.27 39.3067 133.296 39.2899 133.322 39.2803C133.351 39.2683 133.382 39.2611 133.416 39.2587C133.452 39.2563 133.494 39.2551 133.542 39.2551H134.362ZM137.456 43.6505C137.629 43.6505 137.77 43.6301 137.881 43.5893C137.993 43.5461 138.083 43.4897 138.151 43.4201C138.218 43.3505 138.265 43.2714 138.291 43.1826C138.317 43.0914 138.331 42.9978 138.331 42.9018C138.331 42.7962 138.315 42.7014 138.284 42.6174C138.253 42.5334 138.202 42.4626 138.133 42.405C138.063 42.345 137.972 42.2994 137.859 42.2682C137.749 42.237 137.612 42.2214 137.449 42.2214H136.531V43.6505H137.456ZM136.531 40.0758V41.487H137.24C137.391 41.487 137.525 41.475 137.643 41.451C137.761 41.4246 137.859 41.3838 137.938 41.3286C138.017 41.2734 138.077 41.2014 138.118 41.1126C138.161 41.0214 138.183 40.9122 138.183 40.785C138.183 40.6554 138.165 40.545 138.129 40.4538C138.095 40.3626 138.043 40.2894 137.971 40.2342C137.899 40.179 137.807 40.1394 137.697 40.1154C137.587 40.089 137.456 40.0758 137.305 40.0758H136.531ZM137.305 39.2551C137.655 39.2551 137.954 39.2887 138.201 39.3559C138.451 39.4207 138.653 39.5143 138.809 39.6367C138.968 39.7567 139.083 39.903 139.155 40.0758C139.227 40.2486 139.263 40.4418 139.263 40.6554C139.263 40.7754 139.245 40.8906 139.209 41.001C139.175 41.1114 139.121 41.2158 139.047 41.3142C138.975 41.4102 138.881 41.4978 138.766 41.577C138.651 41.6562 138.514 41.7234 138.356 41.7786C138.711 41.8626 138.974 41.9994 139.144 42.189C139.315 42.3786 139.4 42.6246 139.4 42.927C139.4 43.1478 139.357 43.3529 139.27 43.5425C139.186 43.7321 139.063 43.8965 138.899 44.0357C138.736 44.1749 138.535 44.2841 138.295 44.3633C138.057 44.4401 137.783 44.4785 137.474 44.4785H135.451V39.2551H137.305ZM142.363 43.6145C142.538 43.6145 142.696 43.5857 142.835 43.5281C142.974 43.4681 143.092 43.3841 143.188 43.2761C143.284 43.1682 143.357 43.0374 143.407 42.8838C143.458 42.7302 143.483 42.5574 143.483 42.3654V39.2551H144.563V42.3654C144.563 42.6822 144.511 42.9738 144.408 43.2402C144.307 43.5041 144.162 43.7321 143.972 43.9241C143.783 44.1161 143.552 44.2661 143.281 44.3741C143.01 44.4821 142.704 44.5361 142.363 44.5361C142.022 44.5361 141.715 44.4821 141.442 44.3741C141.17 44.2661 140.94 44.1161 140.75 43.9241C140.561 43.7321 140.414 43.5041 140.311 43.2402C140.21 42.9738 140.16 42.6822 140.16 42.3654V39.2551H141.24V42.3654C141.24 42.5574 141.265 42.7302 141.316 42.8838C141.366 43.0374 141.439 43.1682 141.535 43.2761C141.631 43.3841 141.749 43.4681 141.888 43.5281C142.027 43.5857 142.186 43.6145 142.363 43.6145ZM148.689 43.6001V44.4785H145.59V39.2551H146.669V43.6001H148.689ZM152.109 42.495L151.543 40.8966C151.51 40.8126 151.474 40.7142 151.435 40.6014C151.399 40.4886 151.365 40.3662 151.331 40.2342C151.297 40.3686 151.261 40.4934 151.223 40.6086C151.187 40.7214 151.152 40.8198 151.119 40.9038L150.557 42.495H152.109ZM153.923 44.4785H153.084C152.991 44.4785 152.914 44.4569 152.854 44.4137C152.796 44.3681 152.753 44.3105 152.724 44.2409L152.371 43.2438H150.291L149.938 44.2409C149.914 44.3009 149.872 44.3561 149.812 44.4065C149.752 44.4545 149.676 44.4785 149.585 44.4785H148.739L150.78 39.2551H151.885L153.923 44.4785ZM158.881 39.2551V44.4785H158.323C158.239 44.4785 158.168 44.4653 158.111 44.4389C158.053 44.4101 157.997 44.3621 157.942 44.2949L155.339 40.983C155.346 41.067 155.351 41.1498 155.353 41.2314C155.358 41.313 155.36 41.3886 155.36 41.4582V44.4785H154.406V39.2551H154.975C155.021 39.2551 155.059 39.2575 155.09 39.2623C155.124 39.2647 155.154 39.2731 155.18 39.2875C155.207 39.2995 155.232 39.3163 155.256 39.3379C155.28 39.3595 155.306 39.3883 155.335 39.4243L157.956 42.7506C157.946 42.6594 157.939 42.5718 157.934 42.4878C157.93 42.4014 157.927 42.3198 157.927 42.243V39.2551H158.881ZM163.532 43.1934C163.592 43.1934 163.642 43.215 163.683 43.2582L164.111 43.7153C163.9 43.9841 163.637 44.1881 163.323 44.3273C163.011 44.4665 162.639 44.5361 162.207 44.5361C161.816 44.5361 161.464 44.4701 161.152 44.3381C160.84 44.2037 160.575 44.0177 160.357 43.7801C160.138 43.5425 159.97 43.2606 159.853 42.9342C159.735 42.6078 159.676 42.2514 159.676 41.865C159.676 41.6058 159.704 41.3598 159.759 41.127C159.817 40.8918 159.899 40.6758 160.007 40.479C160.115 40.2822 160.245 40.1046 160.396 39.9462C160.55 39.7878 160.723 39.6535 160.915 39.5431C161.107 39.4303 161.315 39.3451 161.541 39.2875C161.769 39.2275 162.011 39.1975 162.268 39.1975C162.46 39.1975 162.641 39.2143 162.812 39.2479C162.985 39.2815 163.145 39.3283 163.294 39.3883C163.443 39.4483 163.58 39.5215 163.705 39.6079C163.832 39.6919 163.946 39.7842 164.047 39.885L163.683 40.3818C163.661 40.413 163.634 40.4406 163.6 40.4646C163.567 40.4886 163.521 40.5006 163.463 40.5006C163.406 40.5006 163.347 40.4802 163.287 40.4394C163.229 40.3986 163.157 40.353 163.071 40.3026C162.987 40.2522 162.88 40.2066 162.751 40.1658C162.623 40.125 162.461 40.1046 162.265 40.1046C162.046 40.1046 161.846 40.1442 161.663 40.2234C161.481 40.3026 161.324 40.4178 161.192 40.569C161.062 40.7178 160.961 40.9014 160.889 41.1198C160.817 41.3382 160.781 41.5866 160.781 41.865C160.781 42.1458 160.82 42.3966 160.897 42.6174C160.976 42.8358 161.083 43.0206 161.217 43.1718C161.354 43.3229 161.512 43.4381 161.692 43.5173C161.875 43.5941 162.069 43.6325 162.275 43.6325C162.398 43.6325 162.508 43.6265 162.607 43.6145C162.707 43.6025 162.8 43.5821 162.884 43.5533C162.97 43.5245 163.051 43.4873 163.125 43.4417C163.202 43.3961 163.279 43.3385 163.355 43.269C163.382 43.2474 163.409 43.2294 163.438 43.215C163.467 43.2006 163.498 43.1934 163.532 43.1934ZM165.808 40.101V41.4438H167.551V42.261H165.808V43.6325H168.047V44.4785H164.721V39.2551H168.047V40.101H165.808Z" fill="white"/>
<path d="M170.324 75.8574H2.65111C1.44487 75.8574 0.466797 76.8355 0.466797 78.0418C0.466797 79.2481 1.44487 80.2262 2.65111 80.2262H19.0116C20.7001 80.2262 22.0692 81.5953 22.0692 83.2839C22.0692 84.9726 23.4382 86.3417 25.1268 86.3417H55.7396C57.026 86.3417 58.069 87.3847 58.069 88.6711C58.069 89.9579 59.112 91.0006 60.3983 91.0006H141.025C142.874 91.0006 144.373 89.5011 144.373 87.6519C144.373 85.8022 142.874 84.3032 141.025 84.3032H93.3959C92.2702 84.3032 91.3575 83.3905 91.3575 82.2647C91.3575 81.1389 92.2702 80.2262 93.3959 80.2262H170.324C171.531 80.2262 172.509 79.2481 172.509 78.0418C172.508 76.8351 171.53 75.8574 170.324 75.8574Z" fill="#AEB1C1"/>
<path d="M183.817 75.8574H177.702C176.496 75.8574 175.518 76.8355 175.518 78.0418C175.518 79.2481 176.495 80.2262 177.702 80.2262H183.817C185.023 80.2262 186.001 79.2481 186.001 78.0418C186.001 76.8351 185.023 75.8574 183.817 75.8574Z" fill="#AEB1C1"/>
<path d="M39.3454 48.873H13.5264V50.1638H39.3454V48.873Z" fill="#404041"/>
<path d="M26.4365 45.291H24.9805V54.0091H26.4365V45.291Z" fill="#404041"/>
<path d="M45.4571 60.8291V55.8338C45.4571 55.6368 45.4761 55.4449 45.5099 55.2596C45.5211 55.1973 45.5436 55.1406 45.5588 55.0799C45.5882 54.96 45.6164 54.8392 45.6588 54.7266C45.7164 54.5742 45.7852 54.4292 45.8645 54.2923C45.8679 54.2858 45.8705 54.2789 45.874 54.2724C45.958 54.13 46.0545 53.9979 46.1593 53.8758C46.2221 53.8026 46.2944 53.742 46.3641 53.6771C46.4169 53.6277 46.465 53.5727 46.5213 53.5286C46.5992 53.4675 46.6854 53.4212 46.7694 53.3705C46.8261 53.3363 46.8785 53.2947 46.9378 53.2657C47.0348 53.2181 47.1391 53.1882 47.2422 53.1553C47.2954 53.1384 47.3448 53.1125 47.3993 53.0995C47.5595 53.0614 47.7254 53.041 47.8955 53.041H2.43889C2.26874 53.041 2.10291 53.0614 1.94272 53.0995C1.88816 53.1125 1.83837 53.1384 1.78512 53.1558C1.68207 53.1887 1.57816 53.2185 1.48117 53.2662C1.42142 53.2956 1.36817 53.3376 1.31102 53.3723C1.22746 53.4225 1.14173 53.4684 1.06466 53.529C1.00794 53.5732 0.959884 53.6286 0.906629 53.6784C0.837354 53.7429 0.765484 53.8035 0.702704 53.8767C0.698374 53.8814 0.693178 53.8853 0.688848 53.8901C0.588833 54.0083 0.497909 54.1365 0.416945 54.2733C0.413481 54.2793 0.410883 54.2867 0.40742 54.2932C0.331651 54.424 0.263676 54.5612 0.207823 54.7063C0.205225 54.7132 0.20436 54.721 0.201762 54.7275C0.159331 54.8405 0.131189 54.9609 0.101747 55.0808C0.0865934 55.1414 0.0645109 55.1986 0.0528209 55.2609C0.0190495 55.4462 0 55.638 0 55.8351V60.8304C0 61.986 0.613512 62.9797 1.48897 63.4045C1.78079 63.546 2.10161 63.6244 2.43846 63.6244H47.8955C46.5481 63.6231 45.4571 62.3705 45.4571 60.8291Z" fill="#868686"/>
<path d="M51.2514 53.041C54.474 53.041 57.0874 56.0286 57.0874 59.7137V63.624H47.8959C46.5481 63.624 45.457 62.3714 45.457 60.8299V55.8346C45.457 54.2936 46.5481 53.041 47.8959 53.041H51.2514Z" fill="#ADADAD"/>
<path d="M42.5423 54.3086H2.74671C2.10332 54.3086 1.58203 54.8303 1.58203 55.4733C1.58203 56.1163 2.10375 56.638 2.74671 56.638H42.5423C43.1857 56.638 43.7074 56.1163 43.7074 55.4733C43.7074 54.8303 43.1857 54.3086 42.5423 54.3086Z" fill="#ADADAD"/>
<path d="M25.707 51.0369C27.6131 51.0369 29.1582 50.4152 29.1582 49.6483C29.1582 48.8815 27.6131 48.2598 25.707 48.2598C23.801 48.2598 22.2559 48.8815 22.2559 49.6483C22.2559 50.4152 23.801 51.0369 25.707 51.0369Z" fill="#868686"/>
<path d="M96.3593 27.002H94.317C93.7433 27.002 93.2783 27.467 93.2783 28.0407V34.5787H96.3593C97.2235 34.5787 97.924 33.8781 97.924 33.0139V28.5668C97.924 27.7025 97.2235 27.002 96.3593 27.002Z" fill="#868686"/>
<path d="M91.2302 33.6738C90.98 33.6738 90.7773 33.8769 90.7773 34.1272C90.7773 34.3774 90.98 34.5801 91.2302 34.5801H93.2786V33.6738H91.2302Z" fill="#58595B"/>
<defs>
<filter id="filter0_d_1882_8410" x="47.2295" y="6.88086" width="135.896" height="58.75" filterUnits="userSpaceOnUse" color-interpolation-filters="sRGB">
<feFlood flood-opacity="0" result="BackgroundImageFix"/>
<feColorMatrix in="SourceAlpha" type="matrix" values="0 0 0 0 0 0 0 0 0 0 0 0 0 0 0 0 0 0 127 0" result="hardAlpha"/>
<feOffset/>
<feGaussianBlur stdDeviation="1"/>
<feComposite in2="hardAlpha" operator="out"/>
<feColorMatrix type="matrix" values="0 0 0 0 0 0 0 0 0 0 0 0 0 0 0 0 0 0 0.25 0"/>
<feBlend mode="normal" in2="BackgroundImageFix" result="effect1_dropShadow_1882_8410"/>
<feBlend mode="normal" in="SourceGraphic" in2="effect1_dropShadow_1882_8410" result="shape"/>
</filter>
</defs>
</svg>
