<svg id="Layer_1" enable-background="new 0 0 500 500" viewBox="0 0 500 500" xmlns="http://www.w3.org/2000/svg"><g clip-rule="evenodd" fill-rule="evenodd"><path d="m354.085 118.963c60.337 0 109.25 71.739 109.25 160.234s-48.913 160.234-109.25 160.234-109.251-71.739-109.251-160.234 48.913-160.234 109.251-160.234zm0 43.7c-36.203 0-65.55 52.174-65.55 116.534s29.348 116.533 65.55 116.533 65.55-52.174 65.55-116.533c0-64.36-29.348-116.534-65.55-116.534z" fill="#ffe177"/><path d="m354.085 118.963c60.337 0 109.25 71.739 109.25 160.234s-48.913 160.234-109.25 160.234v-43.7c36.202 0 65.55-52.174 65.55-116.533 0-64.36-29.348-116.534-65.55-116.534z" fill="#19cfba"/><path d="m422.966 403.564c-40.103 47.836-97.659 47.836-137.762 0l27.625-33.813c24.035 34.65 58.476 34.65 82.511 0z" fill="#88c8fe"/><path d="m112.576 310.758-13.808 114.106h29.133l101.967-111.678z" fill="#fa6e85"/><path d="m46.469 293.764h324.818c5.341 0 9.711 4.37 9.711 9.711v14.567c0 5.341-4.37 9.711-9.711 9.711h-324.818c-5.341 0-9.711-4.37-9.711-9.711v-14.567c0-5.342 4.37-9.711 9.711-9.711z" fill="#fa6e85"/><path d="m77.267 263.378 109.028-17.289c8.281-1.313 12.839-9.43 21.224-9.409l84.746.217c12.811.032 22.518 5.755 29.973 15.841 8.286 11.21 6.715 12.714 6.555 24.439-.116 8.48-7.052 15.321-15.533 15.321h-235.993c-10.803-1.458-18.397-5.454-23.455-11.411v-39.274c13.549-1.357 17.179 11.446 23.455 21.565z" fill="#fcd4a9"/><circle cx="347.42" cy="265.893" fill="#fcd4a9" r="25.182"/><path d="m137.143 92.457h50.293c6.089 0 11.07 4.982 11.07 11.07v50.293c0 6.089-4.982 11.07-11.07 11.07h-50.293c-6.089 0-11.07-4.982-11.07-11.07v-50.293c-.001-6.089 4.981-11.07 11.07-11.07z" fill="#19cfba"/><path d="m87.592 196.592v-33.987c0-3.681 2.981-6.668 6.662-6.668s6.668 2.987 6.668 6.668v27.325h27.325c3.681 0 6.668 2.976 6.668 6.662 0 3.681-2.987 6.668-6.668 6.668h-33.992c-3.681 0-6.663-2.987-6.663-6.668zm0-101.966v-33.992c0-3.681 2.981-6.668 6.662-6.668h33.993c3.681 0 6.668 2.987 6.668 6.668 0 3.675-2.987 6.668-6.668 6.668h-27.325v27.325c0 3.681-2.987 6.662-6.668 6.662s-6.662-2.982-6.662-6.663zm108.634 108.634c-3.686 0-6.668-2.987-6.668-6.668 0-3.687 2.981-6.662 6.668-6.662h27.319v-27.325c0-3.681 2.987-6.668 6.662-6.668 3.692 0 6.668 2.987 6.668 6.668v33.987c0 3.681-2.976 6.668-6.668 6.668zm-6.668-142.626c0-3.681 2.981-6.668 6.668-6.668h33.981c3.692 0 6.668 2.987 6.668 6.668v33.993c0 3.681-2.976 6.662-6.668 6.662-3.675 0-6.662-2.981-6.662-6.662v-27.326h-27.319c-3.686 0-6.668-2.993-6.668-6.667zm233.304 332.276-19.31-23.638c29.562-47.936 30.106-126.962 2.637-175.804-12.086-21.488-28.047-34.405-45.493-37.025v-30.541c53.468 5.16 95.917 71.912 95.917 153.238 0 45.057-13.037 85.654-33.751 113.77zm-62.166 39.456c19.906-1.915 38.298-12.378 53.531-28.965l-18.754-22.95c-10.205 12.12-22.096 19.47-34.778 21.374v30.541zm-66.821-29.004 18.736-22.927c.178.201.344.424.522.637 10.148 11.805 21.872 18.868 34.233 20.743v30.564c-19.304-1.859-37.667-11.795-53.491-29.017zm-4.524-69.006h-31.006c5.768 22.188 15.061 42.352 26.918 58.473l19.258-23.569c-6.22-9.953-11.357-21.757-15.17-34.904zm-164.447 83.786h-18.667l10.136-83.786h85.024zm-81.538-100.16c0 1.646 1.399 3.039 3.05 3.039h324.812c1.651 0 3.05-1.393 3.05-3.039v-14.562c0-1.657-1.399-3.05-3.05-3.05h-324.812c-1.651 0-3.05 1.393-3.05 3.05zm17.056-39.588v-28.592c3.923 2.768 7.606 11.343 11.128 17.028 1.41 2.282 4.053 3.492 6.708 3.067l109.024-17.286c9.79-1.55 14.854-9.329 20.17-9.322l84.743.212c8.881.017 16.357 3.423 22.199 10.119l2.465 3.067c-2.616 8.709-1.359 18.049 3.302 25.691-1.64 2.098-4.185 3.388-6.954 3.388v1.273h-235.269l.16-1.21c-7.717-1.037-13.525-3.479-17.676-7.435zm223.402-111.03 21.018 21.03c-7.241 11.444-13.135 25.559-17.188 41.767l-30.828-.08c5.51-24.373 14.919-45.753 26.998-62.717zm63.542-41.463c-20.393 1.995-39.502 13.118-55.223 30.942l20.668 20.663c10.027-11.759 21.855-19.126 34.554-21.047v-30.558zm0 158.444c10.211 0 18.513-8.302 18.513-18.513s-8.302-18.518-18.513-18.518-18.518 8.307-18.518 18.518 8.307 18.513 18.518 18.513zm47.208 73.925c24.472-43.511 24.477-114.76 0-158.272-19.16-34.06-48.364-41.872-72.25-12.986l25.347 25.347c2.603 2.603 2.603 6.828 0 9.431-2.613 2.602-6.813 2.607-9.431 0l-23.667-23.667c-5.452 9.225-10.039 20.37-13.393 32.966 8.766 1.8 16.494 6.278 22.744 13.215 5.831-6.341 14.173-10.32 23.443-10.32 17.561 0 31.842 14.287 31.842 31.848 0 8.13-3.067 15.572-8.112 21.208 9.204 0 16.512 7.336 16.512 16.38v14.563c0 9.03-7.35 16.374-16.38 16.374h-67.95c10.611 33.476 30.012 54.643 50.755 54.643 14.992 0 29.389-10.916 40.54-30.73zm-202.791-204.511v-50.292c0-2.391-2.018-4.409-4.397-4.409h-50.292c-2.396 0-4.409 2.018-4.409 4.409v50.292c0 2.391 2.012 4.409 4.409 4.409h50.292c2.379 0 4.397-2.019 4.397-4.409zm245.005 8.319c-21.918-32.141-51.307-49.839-82.754-49.839-26.201 0-50.842 12.16-71.327 35.156l-23.501-23.495c-1.25-1.256-2.947-1.955-4.719-1.955h-49.375v-18.478c0-9.787-7.952-17.739-17.727-17.739h-50.292c-9.787 0-17.739 7.952-17.739 17.739v50.292c0 9.775 7.952 17.739 17.739 17.739h50.292c9.775 0 17.727-7.963 17.727-17.739v-18.484h46.623l22.555 22.566c-14.442 19.745-25.267 44.806-31.097 72.205l-35.764-.086c-10.737 0-16.275 8.534-22.234 9.488l-104.511 16.569c-5.198-9.359-10.489-21.235-25.8-21.001-.596.006-1.198.04-1.794.103-3.411.35-5.997 3.21-5.997 6.633v39.267c0 2.745 1.409 4.236 3.136 6.02h-3.812c-9.03 0-16.38 7.35-16.38 16.38v14.563c0 9.03 7.35 16.374 16.38 16.374h56.53l-10.848 89.651c-.488 3.979 2.646 7.465 6.611 7.465h29.142c1.863 0 3.658-.791 4.919-2.179l86.687-94.937h25.129c7.522 31.091 21.081 57.969 39.416 77.961 20.238 22.062 44.444 33.717 70.032 33.717 31.447 0 60.836-17.704 82.754-49.845 44.237-64.866 44.23-169.247-.001-234.111z" fill="#1e2f3f"/></g></svg>