<svg id="_x33_0" enable-background="new 0 0 64 64" height="512" viewBox="0 0 64 64" width="512" xmlns="http://www.w3.org/2000/svg"><g><path d="m9 47c2.206 0 4-1.794 4-4s-1.794-4-4-4-4 1.794-4 4 1.794 4 4 4zm0-6c1.103 0 2 .897 2 2s-.897 2-2 2-2-.897-2-2 .897-2 2-2z"/><path d="m63 51v-2h-20v2h6v4h-2.184c-.414-1.161-1.514-2-2.816-2h-2.384l-.188-.376c-.501-1.002-1.509-1.624-2.629-1.624-.009 0-.017.002-.025.003l-2.313-1.799c-2.199-1.711-3.46-4.29-3.46-7.076 0-1.838.58-3.644 1.632-5.146.122.007.243.018.367.018 1.065 0 2.106-.288 3.017-.818l5.235 6.282c-.158.291-.252.616-.252.95 0 1.978 1.608 3.586 3.586 3.586.534 0 1.036-.208 1.414-.586l8.414-8.414c.373-.372.586-.888.586-1.414 0-1.978-1.608-3.586-3.586-3.586-.271 0-.533.054-.775.156l-14.211-15.098c-1.25-1.325-3.54-1.361-4.827-.072l-.601.6v-2.586c0-8.271-6.729-15-15-15-7.168 0-13 5.832-13 13 0 2.794.923 5.564 2.6 7.8l2.2 2.935c.773 1.03 1.2 2.309 1.2 3.599v1.946c-3.194 1.08-5.823 3.499-7.147 6.605-1.742 1.469-2.853 3.663-2.853 6.115v20h17.603c1.112 0 2.189-.326 3.114-.943l1.586-1.057h18.697c.341 0 .674-.035.996-.101v.101c0 1.103.897 2 2 2h16.004c1.103 0 2-.897 2-2v-4c0-1.103-.897-2-2-2h-4v-4zm-12 0h4v4h-4zm-15.767-.219 1.444 1.123-1.095 1.096h-3.219l-.571-.477c-3.046-2.537-4.792-6.265-4.792-10.228 0-2.987 1.018-5.879 2.857-8.22.635 1.058 1.583 1.905 2.719 2.409-1.018 1.698-1.576 3.654-1.576 5.643 0 3.408 1.543 6.562 4.233 8.654zm-.233-15.781c-2.206 0-4-1.794-4-4 0-.847.276-1.653.76-2.326l4.941 5.93c-.53.25-1.107.396-1.701.396zm18.414 0c.875 0 1.586.712 1.586 1.586l-8.414 8.414c-.875 0-1.586-.712-1.586-1.586zm-2.292-.536-6.509 6.509-1.442-1.73 6.413-6.413zm-2.909-3.092-6.327 6.328-2.806-3.367 6.141-6.14zm-9.297-9.878 4.934 5.242-6.055 6.055-4.641-5.569zm-3.901-2.095c.522-.522 1.45-.509 1.957.029l.573.609-5.676 5.643-.553-.663c-.204-.245-.316-.554-.316-.872v-.166c0-.358.146-.71.399-.964zm-4.015-3.399v4.586l-1.015 1.015c-.626.626-.985 1.493-.985 2.378v.166c0 .475.113.938.304 1.367l-2.013.671-.985 1.969c-.57 1.14-1.716 1.848-2.991 1.848-.663 0-1.304-.194-1.855-.562l-3.62-2.413c-.526-.351-.84-.938-.84-1.57v-4.535c3.387-.488 6-3.401 6-6.92 0-1.451-.444-2.8-1.203-3.919l4.494-4.085c2.874 2.387 4.709 5.985 4.709 10.004zm-18.044 11.792 2.452-.613c.298.601.746 1.126 1.323 1.511l.099.066-1.537 1.537 1.414 1.414 1.82-1.82 1.224.816c-1.266 1.069-2.152 2.506-2.535 4.1l-4.216-4.217v-2.253c0-.182-.032-.361-.044-.541zm5.884-24.749c2.097.135 4.056.766 5.767 1.781l-4.156 3.778c-.68-.561-1.468-.995-2.326-1.269zm2.16 10.957c0 2.757-2.243 5-5 5s-5-2.243-5-5 2.243-5 5-5 5 2.243 5 5zm-4.192-10.933-.657 3.94c-.05 0-.1-.007-.151-.007-.489 0-.966.051-1.427.147l-1.143-3.14c1.05-.482 2.184-.81 3.378-.94zm-5.138 1.952 1.023 2.814c-.717.386-1.354.897-1.894 1.498l-2.004-1.336c.763-1.165 1.74-2.174 2.875-2.976zm-3.821 4.749 1.839 1.226c-.298.624-.506 1.297-.608 2.006h-2.029c.103-1.135.375-2.222.798-3.232zm1.351 10.833c-1.218-1.625-1.962-3.583-2.15-5.601h2.03c.441 3.059 2.861 5.479 5.92 5.92v4.299l-2.409.602c-.271-.819-.672-1.596-1.191-2.288zm2.515 11.528 5.013 5.013c2.755 2.754 4.272 6.418 4.272 10.314 0 .958-.095 1.921-.283 2.861l-.397 1.983-.613-.153-3.092-6.702c.248-.772.385-1.592.385-2.445 0-4.411-3.589-8-8-8-.623 0-1.226.079-1.808.214 1.183-1.417 2.749-2.503 4.523-3.085zm6.085 20.657-3.692 3.692-4.155-5.54c2.257-.27 4.223-1.482 5.502-3.232zm-8.8-15.786c3.309 0 6 2.691 6 6s-2.691 6-6 6-6-2.691-6-6 2.691-6 6-6zm-6 24v-12.726c1.126 1.279 2.647 2.202 4.376 2.56l5.702 7.605.077.309c.214.856.628 1.613 1.168 2.253h-11.323zm19-1.535-1.393.928c-.595.397-1.288.607-2.004.607-1.647 0-3.075-1.108-3.493-2.696l4.197-4.197 2.693.673zm1.123-6.465-.86-.215.415-2.075c.214-1.07.322-2.165.322-3.254 0-4.002-1.419-7.779-4-10.782v-.068c0-1.877.92-3.638 2.442-4.696l.251-.166c.521.165 1.066.256 1.622.256 2.037 0 3.869-1.132 4.78-2.954l.614-1.229 1.577-.525c-.826 1.049-1.286 2.347-1.286 3.708 0 .3.029.592.072.88l-.385.449c-2.377 2.774-3.687 6.313-3.687 9.966 0 4.036 1.581 7.856 4.372 10.705zm18.877 6h-18v-4.028l12.41.028 1.726-1.725c.429-.428 1.233-.298 1.504.243l.74 1.482h3.62c.551 0 1 .448 1 1 0 1.654-1.346 3-3 3zm19-2v4l-16.004.001.001-1.024c.955-.721 1.655-1.763 1.902-2.977z"/><path d="m13 14c0 1.654 1.346 3 3 3s3-1.346 3-3-1.346-3-3-3-3 1.346-3 3zm4 0c0 .552-.449 1-1 1s-1-.448-1-1 .449-1 1-1 1 .448 1 1z"/><circle cx="28" cy="16" r="1"/></g></svg>