<svg id="_41_Drugs" enable-background="new 0 0 512 512" viewBox="0 0 512 512" xmlns="http://www.w3.org/2000/svg" xmlns:xlink="http://www.w3.org/1999/xlink"><linearGradient id="SVGID_1_" gradientTransform="matrix(.707 -.707 -.707 -.707 3381.75 223.574)" gradientUnits="userSpaceOnUse" x1="-2134.888" x2="-2134.888" y1="2115.316" y2="2027.756"><stop offset="0" stop-color="#f3faff"/><stop offset="1" stop-color="#d5daf3"/></linearGradient><linearGradient id="lg1"><stop offset="0" stop-color="#dbd5ef" stop-opacity="0"/><stop offset=".2667" stop-color="#d8d2ec" stop-opacity=".023"/><stop offset=".4431" stop-color="#d1c9e2" stop-opacity=".098"/><stop offset=".5933" stop-color="#c4b9d1" stop-opacity=".225"/><stop offset=".7288" stop-color="#b2a4ba" stop-opacity=".405"/><stop offset=".8545" stop-color="#9a889c" stop-opacity=".638"/><stop offset=".9713" stop-color="#7e6678" stop-opacity=".92"/><stop offset="1" stop-color="#765d6e"/></linearGradient><linearGradient id="SVGID_00000150062057467293050180000006016242886722591376_" gradientTransform="matrix(.707 -.707 -.707 -.707 3381.75 223.574)" gradientUnits="userSpaceOnUse" x1="-2134.888" x2="-2134.888" xlink:href="#lg1" y1="2102.573" y2="1978.639"/><linearGradient id="SVGID_00000096020951499210871930000010913037686201672868_" gradientTransform="matrix(1 0 0 -1 0 514)" gradientUnits="userSpaceOnUse" x1="400.781" x2="328.913" xlink:href="#lg1" y1="216.501" y2="219.287"/><linearGradient id="SVGID_00000059305938826655903190000015383162338680541114_" gradientTransform="matrix(.707 -.707 -.707 -.707 3381.75 223.574)" gradientUnits="userSpaceOnUse" x1="-2325.789" x2="-2325.789" y1="2115.316" y2="2027.756"><stop offset="0" stop-color="#fe646f"/><stop offset=".235" stop-color="#fa5964"/><stop offset=".6415" stop-color="#ef3d49"/><stop offset="1" stop-color="#e41f2d"/></linearGradient><linearGradient id="lg2"><stop offset="0" stop-color="#a72b2b" stop-opacity="0"/><stop offset=".1561" stop-color="#a32b2a" stop-opacity=".066"/><stop offset=".386" stop-color="#982c29" stop-opacity=".248"/><stop offset=".6615" stop-color="#872f28" stop-opacity=".545"/><stop offset=".97" stop-color="#6f3226" stop-opacity=".956"/><stop offset="1" stop-color="#6d3326"/></linearGradient><linearGradient id="SVGID_00000047021916061779249650000017028858912406723743_" gradientTransform="matrix(1 0 0 -1 0 514)" gradientUnits="userSpaceOnUse" x1="285.697" x2="281.798" xlink:href="#lg2" y1="114.412" y2="190.737"/><linearGradient id="SVGID_00000065796760636612447930000014925197695845585298_" gradientTransform="matrix(.707 -.707 -.707 -.707 3381.75 223.574)" gradientUnits="userSpaceOnUse" x1="-2272.985" x2="-2205.385" xlink:href="#lg2" y1="2080.803" y2="2069.345"/><linearGradient id="SVGID_00000134968563566000344990000009010749776411427458_" gradientTransform="matrix(.707 -.707 -.707 -.707 3381.75 223.574)" gradientUnits="userSpaceOnUse" x1="-2325.789" x2="-2325.789" xlink:href="#lg2" y1="2079.797" y2="1992.11"/><linearGradient id="SVGID_00000083771948858664801110000015360382027396010939_" gradientTransform="matrix(.707 -.707 -.707 -.707 3381.75 223.574)" gradientUnits="userSpaceOnUse" x1="-2114.638" x2="-2067.28" xlink:href="#lg1" y1="2061.418" y2="1994.963"/><linearGradient id="SVGID_00000139984976857167427330000018069412815966666130_" gradientTransform="matrix(.707 .707 .707 -.707 -3164.618 -686.146)" gradientUnits="userSpaceOnUse" x1="3068.66" x2="3068.66" y1="1774.878" y2="1687.318"><stop offset="0" stop-color="#fef0ae"/><stop offset="1" stop-color="#fac600"/></linearGradient><linearGradient id="lg3"><stop offset="0" stop-color="#fe9738" stop-opacity="0"/><stop offset=".1648" stop-color="#fe9637" stop-opacity=".012"/><stop offset=".2957" stop-color="#fe9535" stop-opacity=".052"/><stop offset=".415" stop-color="#fe9331" stop-opacity=".118"/><stop offset=".5274" stop-color="#fe902c" stop-opacity=".211"/><stop offset=".635" stop-color="#fe8c25" stop-opacity=".331"/><stop offset=".739" stop-color="#fe871d" stop-opacity=".479"/><stop offset=".8401" stop-color="#fe8213" stop-opacity=".655"/><stop offset=".9364" stop-color="#fe7b09" stop-opacity=".852"/><stop offset="1" stop-color="#fe7701"/></linearGradient><linearGradient id="SVGID_00000132065360851140570110000016666300758392561538_" gradientTransform="matrix(.707 .707 .707 -.707 -3164.618 -686.146)" gradientUnits="userSpaceOnUse" x1="3068.66" x2="3068.66" xlink:href="#lg3" y1="1762.136" y2="1638.201"/><linearGradient id="SVGID_00000115506064257004536130000015635300334814400899_" gradientTransform="matrix(1 0 0 -1 0 514)" gradientUnits="userSpaceOnUse" x1="146.775" x2="44.416" y1="441.772" y2="339.413"><stop offset="0" stop-color="#c1e9af"/><stop offset=".1072" stop-color="#b6e4aa"/><stop offset=".2935" stop-color="#99d69e"/><stop offset=".5365" stop-color="#6bc18a"/><stop offset=".8238" stop-color="#2ca36f"/><stop offset="1" stop-color="#02905d"/></linearGradient><linearGradient id="SVGID_00000088854406467849288510000003823143338332965293_" gradientTransform="matrix(1 0 0 -1 0 514)" gradientUnits="userSpaceOnUse" x1="86.33" x2="52.996" y1="358.207" y2="285.54"><stop offset="0" stop-color="#026841" stop-opacity="0"/><stop offset=".2182" stop-color="#026841" stop-opacity=".033"/><stop offset=".4099" stop-color="#026841" stop-opacity=".137"/><stop offset=".5916" stop-color="#026841" stop-opacity=".31"/><stop offset=".7671" stop-color="#026841" stop-opacity=".553"/><stop offset=".9367" stop-color="#026841" stop-opacity=".864"/><stop offset="1" stop-color="#026841"/></linearGradient><linearGradient id="SVGID_00000122719811864442676800000006507855600778321027_" gradientTransform="matrix(.707 .707 .707 -.707 -3164.618 -686.146)" gradientUnits="userSpaceOnUse" x1="3088.91" x2="3136.269" xlink:href="#lg3" y1="1720.981" y2="1654.526"/><linearGradient id="SVGID_00000141443013182170240310000012541807411702812298_" gradientTransform="matrix(.707 .707 .707 -.707 -3164.618 -686.146)" gradientUnits="userSpaceOnUse" x1="3065.084" x2="3186.536" xlink:href="#lg3" y1="1738.651" y2="1698.549"/><linearGradient id="SVGID_00000157986838069821656650000018429115213994086050_" gradientTransform="matrix(.707 .707 .707 -.707 -3164.618 -686.146)" gradientUnits="userSpaceOnUse" x1="3094.074" x2="3123.411" y1="1682.258" y2="1627.161"><stop offset="0" stop-color="#fac600" stop-opacity="0"/><stop offset=".1175" stop-color="#fac602" stop-opacity=".017"/><stop offset=".2423" stop-color="#fac80b" stop-opacity=".067"/><stop offset=".3705" stop-color="#facc1a" stop-opacity=".151"/><stop offset=".5011" stop-color="#fbd12e" stop-opacity=".268"/><stop offset=".6336" stop-color="#fbd748" stop-opacity=".419"/><stop offset=".7676" stop-color="#fcdf69" stop-opacity=".604"/><stop offset=".9003" stop-color="#fde88e" stop-opacity=".819"/><stop offset="1" stop-color="#fef0ae"/></linearGradient><linearGradient id="lg4"><stop offset="0" stop-color="#99e6fc"/><stop offset=".1325" stop-color="#8ee1fb"/><stop offset=".3627" stop-color="#71d5f9"/><stop offset=".6631" stop-color="#43c2f5"/><stop offset="1" stop-color="#08a9f1"/></linearGradient><linearGradient id="SVGID_00000141413168800729892320000014449583602159014046_" gradientTransform="matrix(1 0 0 -1 0 514)" gradientUnits="userSpaceOnUse" x1="301.825" x2="408.593" xlink:href="#lg4" y1="456.026" y2="349.258"/><linearGradient id="SVGID_00000098922354572712651740000008018582745625610893_" gradientTransform="matrix(1 0 0 -1 0 514)" gradientUnits="userSpaceOnUse" x1="366.769" x2="333.466" xlink:href="#lg4" y1="391.085" y2="424.388"/><linearGradient id="lg5"><stop offset="0" stop-color="#2740b0" stop-opacity="0"/><stop offset=".2505" stop-color="#263fae" stop-opacity=".023"/><stop offset=".4239" stop-color="#253dab" stop-opacity=".095"/><stop offset=".5741" stop-color="#233ba4" stop-opacity=".218"/><stop offset=".711" stop-color="#21379b" stop-opacity=".393"/><stop offset=".8389" stop-color="#1e3290" stop-opacity=".618"/><stop offset=".9585" stop-color="#1a2c82" stop-opacity=".89"/><stop offset="1" stop-color="#192a7d"/></linearGradient><linearGradient id="SVGID_00000132769871208473447580000001581681156313646208_" gradientTransform="matrix(1 0 0 -1 0 514)" gradientUnits="userSpaceOnUse" x1="353.306" x2="353.306" xlink:href="#lg5" y1="385.38" y2="287.813"/><linearGradient id="SVGID_00000121989181714239750550000015554163460895207613_" gradientTransform="matrix(1 0 0 -1 0 514)" gradientUnits="userSpaceOnUse" x1="372.899" x2="467.613" xlink:href="#lg5" y1="404.546" y2="404.546"/><linearGradient id="SVGID_00000083785555982395595560000016351755918799741827_" gradientTransform="matrix(1 0 0 -1 0 514)" gradientUnits="userSpaceOnUse" x1="386.186" x2="433.164" y1="371.666" y2="324.687"><stop offset="0" stop-color="#08a9f1" stop-opacity="0"/><stop offset=".0927" stop-color="#0baaf1" stop-opacity=".025"/><stop offset=".2192" stop-color="#15aef2" stop-opacity=".094"/><stop offset=".3651" stop-color="#26b5f3" stop-opacity=".208"/><stop offset=".5256" stop-color="#3dbff5" stop-opacity=".367"/><stop offset=".698" stop-color="#5acbf7" stop-opacity=".571"/><stop offset=".8776" stop-color="#7edaf9" stop-opacity=".816"/><stop offset="1" stop-color="#99e6fc"/></linearGradient><g><g><g><path d="m483.065 178.176c19.29 19.29 28.935 44.574 28.935 69.85s-9.645 50.56-28.935 69.85l-75.442 75.442-90.459-49.241-49.241-90.459 75.442-75.442c38.58-38.581 101.119-38.581 139.7 0z" fill="url(#SVGID_1_)"/><path d="m483.065 178.176c19.29 19.29 28.935 44.574 28.935 69.85s-9.645 50.56-28.935 69.85l-75.442 75.442-90.459-49.241-15.002-27.564 156.316-156.316c8.857 4.568 17.161 10.554 24.587 17.979z" fill="url(#SVGID_00000150062057467293050180000006016242886722591376_)"/><path d="m462.319 338.635-54.698 54.674-90.452-49.235-49.236-90.452 54.675-54.698z" fill="url(#SVGID_00000096020951499210871930000010913037686201672868_)"/><path d="m267.923 253.617 139.7 139.7-75.442 75.442c-38.581 38.581-101.119 38.581-139.7 0-19.29-19.29-28.936-44.574-28.936-69.85s9.645-50.56 28.936-69.85z" fill="url(#SVGID_00000059305938826655903190000015383162338680541114_)"/><path d="m267.923 253.617 139.7 139.7-75.442 75.442c-38.581 38.581-101.119 38.581-139.7 0-19.29-19.29-28.936-44.574-28.936-69.85s9.645-50.56 28.936-69.85z" fill="url(#SVGID_00000047021916061779249650000017028858912406723743_)"/><path d="m188.562 333.217 139.462 139.462c1.413-1.261 2.802-2.564 4.158-3.92l75.442-75.442-139.7-139.7-75.442 75.442c-1.356 1.356-2.66 2.745-3.92 4.158z" fill="url(#SVGID_00000065796760636612447930000014925197695845585298_)"/><path d="m316.49 302.184 91.133 91.133-75.442 75.442c-38.581 38.581-101.119 38.581-139.7 0-7.425-7.425-13.418-15.737-17.98-24.587z" fill="url(#SVGID_00000134968563566000344990000009010749776411427458_)"/><path d="m343.365 178.176-54.088 54.088 139.7 139.7 54.088-54.088c19.29-19.29 28.936-44.574 28.935-69.85 0-25.276-9.645-50.56-28.935-69.85-38.581-38.581-101.12-38.581-139.7 0z" fill="url(#SVGID_00000083771948858664801110000015360382027396010939_)"/></g><g><path d="m319.518 335.359c-19.29 19.29-44.574 28.935-69.85 28.935s-50.56-9.645-69.85-28.935l-75.442-75.442 49.241-90.459 90.459-49.241 75.442 75.442c38.581 38.581 38.581 101.119 0 139.7z" fill="url(#SVGID_00000139984976857167427330000018069412815966666130_)"/><path d="m319.518 335.359c-19.29 19.29-44.574 28.935-69.85 28.935s-50.56-9.645-69.85-28.935l-75.442-75.442 49.241-90.459 27.564-15.002 156.316 156.316c-4.568 8.857-10.553 17.161-17.979 24.587z" fill="url(#SVGID_00000132065360851140570110000016666300758392561538_)"/><path d="m244.077 120.217-139.7 139.7-75.442-75.442c-38.581-38.581-38.581-101.119 0-139.7 19.29-19.29 44.574-28.936 69.85-28.935 25.276 0 50.56 9.645 69.85 28.936 0 0 75.442 75.441 75.442 75.441z" fill="url(#SVGID_00000115506064257004536130000015635300334814400899_)"/><path d="m195.51 168.784-91.133 91.133-75.442-75.442c-38.581-38.581-38.581-101.119 0-139.7 7.425-7.425 15.737-13.418 24.587-17.98z" fill="url(#SVGID_00000088854406467849288510000003823143338332965293_)"/><path d="m319.518 195.659-54.088-54.088-139.7 139.7 54.088 54.088c19.29 19.29 44.574 28.936 69.85 28.935 25.276 0 50.56-9.645 69.85-28.935 38.581-38.581 38.581-101.119 0-139.7z" fill="url(#SVGID_00000122719811864442676800000006507855600778321027_)"/><path d="m319.518 195.659-54.088-54.088-139.7 139.7 54.088 54.088c19.29 19.29 44.574 28.936 69.85 28.935 25.276 0 50.56-9.645 69.85-28.935 38.581-38.581 38.581-101.119 0-139.7z" fill="url(#SVGID_00000141443013182170240310000012541807411702812298_)"/><path d="m319.521 335.355c-19.29 19.29-44.574 28.936-69.85 28.936s-50.56-9.645-69.85-28.936l-75.442-75.442 91.133-91.133 141.988 141.988c-4.568 8.858-10.553 17.162-17.979 24.587z" fill="url(#SVGID_00000157986838069821656650000018429115213994086050_)"/></g></g><g><circle cx="353.305" cy="109.454" fill="url(#SVGID_00000141413168800729892320000014449583602159014046_)" r="95.149"/><path d="m433.721 58.581-131.3 131.3c-11.891-7.553-22.001-17.661-29.506-29.553l131.276-131.3c11.892 7.552 22.001 17.662 29.53 29.553z" fill="url(#SVGID_00000098922354572712651740000008018582745625610893_)"/><path d="m258.157 109.454c0 52.549 42.599 95.149 95.149 95.149s95.149-42.6 95.149-95.149c0-2.631-.112-5.235-.321-7.812h-189.656c-.209 2.577-.321 5.182-.321 7.812z" fill="url(#SVGID_00000132769871208473447580000001581681156313646208_)"/><path d="m353.305 14.306c-6.13 0-12.121.587-17.928 1.694v186.909c5.807 1.107 11.799 1.694 17.928 1.694 52.549 0 95.149-42.6 95.149-95.149s-42.599-95.148-95.149-95.148z" fill="url(#SVGID_00000121989181714239750550000015554163460895207613_)"/><path d="m420.185 41.783-134.551 134.551c17.249 17.452 41.196 28.269 67.672 28.269 52.549 0 95.149-42.6 95.149-95.149-.001-26.476-10.818-50.423-28.27-67.671z" fill="url(#SVGID_00000083785555982395595560000016351755918799741827_)"/></g></g></svg>