<svg id="_x30_1" enable-background="new 0 0 496 496" height="512" viewBox="0 0 496 496" width="512" xmlns="http://www.w3.org/2000/svg"><g><g><g><path d="m296 408v80h-32v-64-8c0-4.42 3.58-8 8-8z" fill="#ccd1d9"/></g><g><path d="m366.5 269.49c12.57-14.48 29.68-25.08 49.5-29.49 42.07 9.35 72 46.66 72 89.76v158.24h-96-96v-80h48v-78.24c0-22.8 8.38-43.99 22.5-60.27z" fill="#e6e9ed"/></g><g><path d="m240.77 28.72 16.83-6.32c12.7-4.76 25.77-8.36 39.06-10.77 13.28-2.41 26.79-3.63 40.35-3.63 28.44 0 54.19 11.53 72.83 30.16 18.63 18.64 30.16 44.39 30.16 72.83 0 21.47-6.71 42.4-19.18 59.87l-20.82 29.14-4.92-.98c-11.06-2.22-21.31-6.92-30.05-13.6s-15.98-15.32-21.03-25.42l.47-.23c4.76-2.38 8.64-6 11.33-10.36 2.7-4.36 4.2-9.45 4.2-14.78 0-4.36-1.02-8.66-2.97-12.56l-3.25-6.51 1.5-.86c2.92-1.67 4.72-4.77 4.72-8.14v-.35c0-1.45-.34-2.89-.99-4.19l-4.42-8.84c-1.59-3.18-4.83-5.18-8.38-5.18-1.45 0-2.89.34-4.19.99l-16.96 8.48c-6.19-10.66-17.68-17.47-30.36-17.47h-.34c-4.2 0-8.38.76-12.32 2.23l-54.64 20.5c-2.25.84-4.63 1.27-7.03 1.27-.12 0-.25 0-.37-.01v.01l-.06.12c-2.59 5.18-3.94 10.9-3.94 16.69 0 2.13.19 4.26.55 6.36l-39.67-4.41c-7.08-.78-13.3-4.17-17.75-9.14s-7.13-11.52-7.13-18.65c0-9.35 4.67-18.09 12.45-23.27l5.16-3.44c-1.05-3.31-1.61-6.78-1.61-10.32 0-18.74 15.2-33.94 33.94-33.94h25.84c4.94 0 9.47 1.77 12.98 4.72z" fill="#b27946"/></g><g><path d="m360 106.21v.35c0 3.37-1.8 6.47-4.72 8.14l-1.5.86-49.78 28.44c0 14.71-8.31 28.16-21.47 34.73l-38.53 19.27-2.15 1.08c-1.22.6-2.56.92-3.92.92-3.58 0-6.8-2.18-8.13-5.51l-13.09-32.73c-.47-1.16-.71-2.41-.71-3.66 0-3.74 2.11-7.16 5.46-8.83l2.54-1.27 101.06-50.53 16.96-8.48c1.3-.65 2.74-.99 4.19-.99 3.55 0 6.79 2 8.38 5.18l4.42 8.84c.65 1.3.99 2.74.99 4.19z" fill="#69d6f4"/></g><g><path d="m264 424v64h-32c-17.67 0-32-14.33-32-32 0-8.84 3.58-16.84 9.37-22.63s13.79-9.37 22.63-9.37z" fill="#f0d0b4"/></g><g><path d="m400 200 16 40c-19.82 4.41-36.93 15.01-49.5 29.49l-22.5-37.49c-10.24 10.24-24.14 16-38.63 16h-4.39c-22.33 0-42.42-13.6-50.72-34.34l-6.26-15.66 38.53-19.27c13.16-6.57 21.47-20.02 21.47-34.73l49.78-28.44 3.25 6.51c1.95 3.9 2.97 8.2 2.97 12.56 0 5.33-1.5 10.42-4.2 14.78-2.69 4.36-6.57 7.98-11.33 10.36l-.47.23c5.05 10.1 12.29 18.74 21.03 25.42s18.99 11.38 30.05 13.6z" fill="#f0d0b4"/></g><g><path d="m220 104v-.01c.12.01.25.01.37.01 2.4 0 4.78-.43 7.03-1.27l54.64-20.5c3.94-1.47 8.12-2.23 12.32-2.23h.34c12.68 0 24.17 6.81 30.36 17.47l-101.06 50.53-5.33-13.33c-.88-2.2-1.55-4.48-1.99-6.8-.05-.23-.09-.47-.13-.7-.36-2.1-.55-4.23-.55-6.36 0-5.79 1.35-11.51 3.94-16.69z" fill="#f0d0b4"/></g><g><path d="m232 488h-216c-4.42 0-8-3.58-8-8v-16c0-4.42 3.58-8 8-8h40 64 80c0 17.67 14.33 32 32 32z" fill="#aab2bd"/></g><g><path d="m120 432v24h-64v-24c0-4.42 3.58-8 8-8h48c4.42 0 8 3.58 8 8z" fill="#ccd1d9"/></g><g><path d="m263.99 391.17c-.44-17.28-14.6-31.17-31.99-31.17h-24c-9.6-38.39-42.26-66.63-81.64-70.56l-10.55-1.06 3.25-6.51c.62-1.23.94-2.59.94-3.96 0-3.58-2.15-6.81-5.45-8.18l-52.15-21.73h73.6l.99.12c72.28 9.04 126.6 70.29 127 143.05z" fill="#ffeaa7"/></g><g><path d="m232 360c-17.67 0-32 14.33-32 32h-184c-4.42 0-8-3.58-8-8v-16c0-4.42 3.58-8 8-8h192z" fill="#ccd1d9"/></g><g><path d="m232 360c17.39 0 31.55 13.89 31.99 31.17.01.28.01.55.01.83 0 17.67-14.33 32-32 32s-32-14.33-32-32 14.33-32 32-32z" fill="#fcd770"/></g><g><path d="m152.96 170.24 20.04 46.76-37.96 12.65c-3.13-16.8-13.77-30.95-28.3-38.86v-.01z" fill="#ccd1d9"/></g><g><path d="m199.37 198.43c.42 1.04.63 2.14.63 3.26 0 1.89-.6 3.66-1.65 5.12-1.05 1.45-2.55 2.59-4.34 3.19l-21.01 7-20.04-46.76 21.34-9.49c1.12-.49 2.33-.75 3.56-.75h.21c3.58 0 6.8 2.18 8.13 5.51z" fill="#ccd1d9"/></g><g><path d="m136 240v8h-73.6l-36.76-15.32c-.36-.15-.74-.28-1.12-.38 1.88-13.65 8.66-25.71 18.53-34.38 9.86-8.66 22.79-13.92 36.95-13.92 9.68 0 18.79 2.46 26.74 6.79 14.53 7.91 25.17 22.06 28.3 38.86.63 3.35.96 6.81.96 10.35z" fill="#aab2bd"/></g><g><path d="m24.52 232.3c.38.1.76.23 1.12.38l36.76 15.32 52.15 21.73c3.3 1.37 5.45 4.6 5.45 8.18 0 1.37-.32 2.73-.94 3.96l-3.25 6.51-1.36 2.72c-1.13 2.26-3.16 3.9-5.52 4.57-.77.21-1.58.33-2.41.33h-.75c-1.17 0-2.33-.23-3.41-.68l-20.3-8.46-6.86-2.86-26.06-10.86-6.85-2.85-26.06-10.86-2.78-1.16c-3.3-1.37-5.45-4.6-5.45-8.18 0-1.37.32-2.73.94-3.96l4.61-9.23c1.5-3 4.57-4.9 7.93-4.9h.75c.78 0 1.55.1 2.29.3z" fill="#aab2bd"/></g><g><path d="m105.77 296h.75c.83 0 1.64-.12 2.41-.33l-10.73 26.82c-.66 1.67-1.8 3.04-3.22 4-1.42.97-3.12 1.51-4.91 1.51-1.36 0-2.7-.32-3.92-.92l-9.31-4.66c-2.97-1.48-4.84-4.52-4.84-7.83v-.9c0-1.12.21-2.22.63-3.26l9.43-23.57 20.3 8.46c1.08.45 2.24.68 3.41.68z" fill="#ccd1d9"/></g><g><path d="m75.2 284-9 22.49c-.66 1.67-1.8 3.04-3.22 4-1.42.97-3.12 1.51-4.91 1.51-1.36 0-2.7-.32-3.92-.92l-9.31-4.66c-2.97-1.48-4.84-4.52-4.84-7.83v-.9c0-1.12.21-2.22.63-3.26l8.51-21.29z" fill="#ccd1d9"/></g><g><path d="m42.29 270.29-8.09 20.2c-.66 1.67-1.8 3.04-3.22 4-1.42.97-3.12 1.51-4.91 1.51-1.36 0-2.7-.32-3.92-.92l-9.31-4.66c-2.97-1.48-4.84-4.52-4.84-7.83v-.9c0-1.12.21-2.22.63-3.26l7.6-19z" fill="#ccd1d9"/></g></g><g><path d="m474.016 267.217c-13.28-16.556-31.661-28.519-52.114-34.005l-12.849-32.121 18.273-25.582c13.525-18.936 20.674-41.244 20.674-64.515 0-61.202-49.792-110.994-110.994-110.994-28.173 0-55.832 5.016-82.21 14.908l-12.958 4.859c-4.143-2.391-8.942-3.767-14.06-3.767h-25.836c-23.128 0-41.942 18.814-41.942 41.941 0 2.283.19 4.535.546 6.746l-.53.354c-10.029 6.687-16.016 17.874-16.016 29.927 0 18.353 13.755 33.721 31.995 35.748l34.136 3.793c.335 1.054.697 2.102 1.111 3.136l2.818 7.044c-3.811 3.339-6.06 8.168-6.06 13.411 0 2.285.431 4.519 1.278 6.636l13.091 32.729c2.561 6.4 8.669 10.536 15.563 10.536.476 0 .951-.028 1.425-.068l3.48 8.7c9.566 23.914 32.391 39.367 58.147 39.367h4.389c13.33 0 26.023-4.136 36.616-11.802l14.77 24.616c-13.389 17.406-20.759 38.957-20.759 60.942v70.244h-64c-.274 0-.542.027-.813.041.533-2.598.813-5.288.813-8.041 0-74.964-54.613-138.797-128-150.932v-1.068c0-1.628-.081-3.236-.201-4.833l52.742-17.581c6.854-2.285 11.459-8.675 11.459-15.899 0-2.141-.403-4.234-1.199-6.224l-13.171-32.928c-2.56-6.4-8.667-10.535-15.56-10.535h-.212c-2.362 0-4.653.486-6.806 1.444l-64.144 28.508c-8.186-3.81-17.299-5.952-26.908-5.952-29.466 0-55.002 20.36-62.057 48.368-4.96 1.049-9.212 4.282-11.547 8.952l-4.615 9.23c-1.166 2.33-1.781 4.938-1.781 7.542 0 5.141 2.309 9.873 6.14 13.019l-4.94 12.352c-.797 1.989-1.2 4.083-1.2 6.225v.897c0 6.39 3.55 12.134 9.266 14.992l9.305 4.652c2.314 1.158 4.907 1.771 7.498 1.771 2.269 0 4.449-.456 6.45-1.286 1.173 4.664 4.299 8.639 8.747 10.863l9.305 4.652c2.314 1.158 4.907 1.771 7.498 1.771 2.269 0 4.449-.456 6.45-1.286 1.173 4.664 4.299 8.639 8.747 10.863l9.305 4.652c2.314 1.158 4.907 1.771 7.498 1.771 6.894 0 13.002-4.136 15.563-10.537l9.533-23.834c2.003-1.194 3.754-2.804 5.129-4.76l5.269.527c32.421 3.243 60.027 24.701 71.53 54.604h-181.093c-8.822 0-16 7.178-16 16v16c0 8.822 7.178 16 16 16h176.805c1.988 9.753 7.536 18.227 15.223 24-7.687 5.773-13.235 14.247-15.223 24h-64.805v-16c0-8.822-7.178-16-16-16h-48c-8.822 0-16 7.178-16 16v16h-32c-8.822 0-16 7.178-16 16v16c0 8.822 7.178 16 16 16h216 160 104v-166.244c0-22.656-7.808-44.866-21.984-62.539zm-314.016-172.249c0-5.64 2.369-10.932 6.445-14.681 1.653 2.615 3.598 5.071 5.839 7.312l6.059 6.059 11.314-11.314-6.059-6.059c-4.9-4.9-7.598-11.415-7.598-18.344 0-14.303 11.638-25.941 25.941-25.941h25.836c6.74 0 12.223 5.483 12.223 12.223 0 6.494-5.283 11.777-11.777 11.777-4.489 0-8.525-2.494-10.533-6.511l-2.534-5.067-14.311 7.156 2.534 5.066c4.734 9.472 14.255 15.356 24.844 15.356 15.316 0 27.777-12.461 27.777-27.777 0-4.18-.92-8.147-2.558-11.719l6.972-2.615c24.575-9.216 50.344-13.889 76.592-13.889 52.38 0 94.994 42.614 94.994 94.994 0 19.916-6.118 39.009-17.694 55.215l-17.809 24.932c-17.432-3.527-32.324-13.761-41.801-28.497 8.351-6.758 13.304-16.935 13.304-28.01 0-5.575-1.318-11.158-3.812-16.146l-.338-.676c2.63-3.097 4.15-7.071 4.15-11.248v-.354c0-2.682-.634-5.367-1.834-7.766l-4.422-8.846c-2.962-5.922-8.913-9.6-15.533-9.6-2.682 0-5.367.634-7.767 1.834l-10.865 5.432c-8.105-9.548-20.128-15.264-32.877-15.264h-.338c-5.186 0-10.276.923-15.133 2.744l-54.643 20.491c-1.353.507-2.772.765-4.218.765-4.58 0-8.698-2.545-10.747-6.643l-2.468-4.936-14.311 7.156 2.468 4.936c3.049 6.097 8.068 10.71 14.074 13.257-.692 2.757-1.142 5.576-1.309 8.411l-30.315-3.368c-10.125-1.125-17.762-9.657-17.762-19.845zm68.199 41.988-2.101-5.254c-1.392-3.479-2.098-7.143-2.098-10.891 0-3.152.53-6.303 1.528-9.296 1.588-.298 3.152-.727 4.679-1.3l54.642-20.49c3.054-1.146 6.255-1.726 9.516-1.726h.338c6.661 0 13.011 2.478 17.892 6.759zm-4.066 21.835c-.088-.22-.133-.453-.133-.691 0-.713.396-1.354 1.033-1.672l120.567-60.283c.188-.095.4-.145.61-.145.521 0 .989.29 1.223.755l4.422 8.846c.095.188.145.4.145.61v.354c0 .489-.264.944-.688 1.187l-55.312 31.605v4.643c0 11.754-6.531 22.321-17.044 27.578l-40.687 20.343c-.378.189-.885 0-1.045-.399zm114.21 67.552c-8.807 8.807-20.516 13.657-32.97 13.657h-4.389c-19.177 0-36.17-11.505-43.292-29.311l-3.531-8.826 31.951-15.975c14.528-7.265 24.05-21.208 25.648-37.109l38.613-22.064c1.067 2.493 1.626 5.207 1.626 7.919 0 7.662-4.258 14.551-11.111 17.978l-7.622 3.812 3.578 7.155c11.281 22.561 31.936 38.337 56.669 43.283l.668.134 11.066 27.667c-13.838 4.48-26.57 11.961-37.228 21.822l-22.432-37.386zm-50.343 189.657v64h-16v-64zm-110.445-247.937c.094-.041.198-.063.304-.063h.212c.312 0 .588.188.704.477l13.171 32.928c.036.091.055.187.055.282 0 .327-.209.616-.52.72l-14.027 4.676-14.031-32.738zm-28.755 12.78 13.421 31.316-21.65 7.217c-3.572-10.461-9.769-19.714-17.82-26.955zm-68.8 11.157c26.468 0 48 21.532 48 48h-63.999l-30.313-12.63c5.6-20.537 24.525-35.37 46.312-35.37zm-63.909 57.707 4.615-9.23c.147-.294.442-.477.771-.477h.751c.114 0 .226.022.33.065l88.912 37.047c.322.134.53.446.53.796 0 .133-.031.267-.091.385l-4.615 9.23c-.147.294-.442.477-.771.477h-.751c-.114 0-.226-.022-.331-.066l-88.911-37.046c-.322-.134-.53-.446-.53-.796 0-.133.031-.267.091-.385zm9.637 38.213-9.306-4.653c-.261-.13-.422-.391-.422-.682v-.897c0-.097.019-.192.055-.283l4.588-11.47 11.287 4.703-5.154 12.883c-.161.401-.659.592-1.048.399zm32 16-9.306-4.653c-.261-.13-.422-.391-.422-.682v-.897c0-.097.019-.192.055-.283l5.502-13.756 11.287 4.703-6.068 15.169c-.161.401-.659.592-1.048.399zm32 16-9.306-4.653c-.261-.13-.422-.391-.422-.682v-.897c0-.097.019-.192.055-.283l6.417-16.042 11.286 4.702-6.982 17.455c-.161.401-.658.594-1.048.4zm37.871-38.391c.262-1.189.401-2.405.401-3.621 0-6.829-4.072-12.938-10.376-15.565l-15.223-6.343h33.099l.496.063c56.474 7.059 101.48 48.115 115.47 101.012-5.765-3.227-12.403-5.075-19.466-5.075h-17.976c-12.151-38.309-46.11-66.26-86.425-70.471zm-111.599 86.471h184.022c-3.501 4.654-6.013 10.092-7.217 16h-176.805zm192 24c0-13.233 10.767-24 24-24s24 10.767 24 24-10.767 24-24 24-24-10.767-24-24zm-144 40h48v16h-48zm-48 32h176.805c1.204 5.908 3.716 11.346 7.217 16h-184.022zm192-8c0-13.233 10.767-24 24-24h24v48h-24c-13.233 0-24-10.767-24-24zm272 24h-42.815c16.34-13.21 26.815-33.4 26.815-56v-108.687c0-9.433-3.673-18.301-10.343-24.971l-11.314 11.314c3.648 3.647 5.657 8.497 5.657 13.656v108.688c0 30.879-25.121 56-56 56h-88v-64h84.687c5.159 0 10.009 2.009 13.656 5.657l11.314-11.314c-6.67-6.67-15.538-10.343-24.971-10.343h-4.686v-57.353c0-25.979 13.839-50.421 36.116-63.787l-8.232-13.721c-27.069 16.243-43.884 45.942-43.884 77.508v57.353h-16v-70.244c0-39.049 26.23-72.309 64-81.522 37.77 9.213 64 42.473 64 81.522z"/><circle cx="232" cy="392" r="8"/></g></g></svg>