<svg id="Layer_1" enable-background="new 0 0 66 66" viewBox="0 0 66 66" xmlns="http://www.w3.org/2000/svg"><g><g><g><g><path d="m63.98 58.77c0 2.88-2.33 5.21-5.21 5.21h-51.54c-2.88 0-5.21-2.33-5.21-5.21 0-.8.65-1.45 1.45-1.45h59.06c.8 0 1.45.65 1.45 1.45z" fill="#0d4353"/></g><g><path d="m40.38 57.32c0 1.25-1.01 2.26-2.26 2.26h-10.25c-1.25 0-2.26-1.01-2.26-2.26z" fill="#3e6f7d"/></g><g><path d="m59.73 24.86v32.46h-53.46v-32.46c0-2.14 1.73-3.87 3.87-3.87h45.72c2.14 0 3.87 1.73 3.87 3.87z" fill="#3e6f7d"/></g><g><path d="m56.25 25.44v27.43c0 .53-.43.97-.97.97h-44.56c-.53 0-.97-.43-.97-.97v-27.43c0-.53.43-.97.97-.97h44.56c.53 0 .97.44.97.97z" fill="#fff"/></g><g><path d="m33.75 22.73c0 .41-.33.75-.75.75-.41 0-.75-.34-.75-.75s.34-.75.75-.75c.42 0 .75.34.75.75z" fill="#fff"/></g></g></g><g><g><g><g><g><g><path d="m41.78 9.42v1.66h-20.43v-1.66c0-3.52 2.37-6.5 5.56-7.02 3.1-.5 7.2-.53 10.3-.03 3.19.53 6.78 3.35 4.57 7.05z" fill="#0d4353"/></g><g><g><g><g><g><path d="m42.44 16.38c-4.33-1.29-6.54-3.72-2.2-8.62 0 0 3.04-2.43 4.26.51 1.52 3.7-2.06 8.11-2.06 8.11z" fill="#0d4353"/></g><g><g><g><g><g><g><path d="m51.32 53.84-.01-10.47c0-2.37.02-5.52-3.59-8.34-.74-.58-2.16-1.2-3.66-1.73-.56-.2-1.13-.39-1.69-.55-.58-.18-1.15-.33-1.66-.46-.08-.02-.18-.04-.25-.06-1.28-.31-2.59-.46-3.91-.46h-7.08c-.06 0-.13 0-.19.01-1.18.01-2.35.14-3.52.41-.07.01-.14.03-.21.04-.08.02-.17.04-.25.06-2.34.58-5.69 1.71-7 2.73-3.61 2.83-3.59 5.97-3.59 8.34l-.02 10.47h36.63z" fill="#f6f0f5"/></g></g><g><g><path d="m44.06 44.77c0 .46-.38.84-.84.84s-.84-.38-.84-.84c0-8.48-1.91-11.02-5.21-12.53-.21-.09-.35-.26-.43-.46 1.18.01 2.35.14 3.52.41 2.72 2.3 3.8 6.05 3.8 12.58z" fill="#0d4353"/></g></g><g><g><path d="m25.76 32.19c-2.49 2.09-3.6 5.39-3.78 10.88h1.69c.25-7.13 2.11-9.43 5.18-10.83.21-.09.35-.26.43-.46-1.19.01-2.36.14-3.52.41z" fill="#0d4353"/></g></g><g><path d="m27.02 31.96 5.98 16.84 5.98-16.84z" fill="#1c8fc7"/></g><g><path d="m32.96 36.04c-4.08 0-6.01-4.08-6.01-4.08 1.59-.87 2.49-2.08 2.98-3.22.13-.27.23-.54.3-.8.42-1.4.31-2.54.31-2.54h4.85s-.16 1.61.6 3.36c.19.45.46.91.79 1.36.52.69 1.23 1.33 2.19 1.85.01-.01-1.86 4.07-6.01 4.07z" fill="#ff8d6b"/></g><g><path d="m35.99 28.74c-.95.4-1.96.61-3.02.61-1.07 0-2.09-.22-3.04-.62.13-.27.23-.54.3-.8.42-1.4.31-2.54.31-2.54h4.85s-.16 1.6.6 3.35z" fill="#e5653f"/></g></g><g><g><path d="m23.29 16.37s-2.62-4.05-1.77-6.25 3.02-1.83 3.02-1.83c3.43 4.59 2.18 6.87-1.25 8.08z" fill="#0d4353"/></g><g><path d="m43.99 17.64c0 1.39-.86 2.53-1.95 2.68-.09.01-.17.02-.26.02-.71 0-1.35-.41-1.76-1.05-.29-.46-.46-1.03-.46-1.66 0-1.49 1-2.7 2.22-2.7 1.22.01 2.21 1.22 2.21 2.71z" fill="#ff8d6b"/></g><g><path d="m28.28 10.28c-.72-.51-1.72-.33-2.23.39-1.31 1.83-2.1 4.2-2.1 6.78 0 5.84 4.04 10.57 9.02 10.57s9.03-4.74 9.03-10.57c0-2.58-.79-4.95-2.11-6.78-.51-.71-1.51-.9-2.23-.39-2.88-1.39-6.07-1.01-9.38 0z" fill="#ff8d6b"/></g><g><path d="m21.95 17.64c0 1.5.99 2.7 2.22 2.7 1.22 0 2.21-1.21 2.21-2.7s-.99-2.7-2.21-2.7c-1.23 0-2.22 1.21-2.22 2.7z" fill="#ff8d6b"/></g></g></g></g></g></g></g></g></g><g><path d="m34.79 8.68c-.89 1.56.18 3.84 2.39 5.1 2.2 1.25 4.71 1.02 5.6-.54s-.18-3.85-2.37-5.1c-2.21-1.26-4.73-1.02-5.62.54z" fill="#0d4353"/></g><g><path d="m22.76 12.41c.62 1.9 3.77 2.56 7.03 1.48 3.24-1.07 5.39-3.48 4.76-5.38-.62-1.9-3.78-2.57-7.02-1.5-3.25 1.08-5.39 3.5-4.77 5.4z" fill="#0d4353"/></g></g><g><path d="m23.05 10.42c-.54 0-.97-.43-.97-.97 0-3.24 2.17-5.94 5.15-6.43.53-.09 1.02.27 1.11.8s-.27 1.02-.8 1.11c-2.01.33-3.52 2.27-3.52 4.51 0 .54-.43.98-.97.98z" fill="#3e6f7d"/></g></g><g><path d="m38.61 37.24 1.16.93c.17.14.21.38.08.57l-6.85 10.06 5.98-16.84 2.92 2.86c.21.21.15.56-.12.68l-3.14 1.45c-.11.05-.13.21-.03.29z" fill="#c3b8c3"/></g><g><path d="m27.39 37.24-1.16.93c-.17.14-.21.38-.08.57l6.85 10.06-5.98-16.84-2.92 2.86c-.21.21-.15.56.12.68l3.14 1.45c.11.05.13.21.03.29z" fill="#c3b8c3"/></g></g><g><path d="m33 53.47c-.54 0-.97-.43-.97-.97v-3.7c0-.54.43-.97.97-.97s.97.43.97.97v3.7c0 .54-.44.97-.97.97z" fill="#e1d9e1"/></g></g><g><g><g><path d="m25.47 50.79h-.43c-.48 0-.87-.39-.87-.87s.39-.87.87-.87h.43c.16 0 .28-.13.28-.29v-2.19c0-.82-.34-1.63-.94-2.21-.56-.54-1.29-.82-2-.81-.73.02-1.43.32-1.96.84-.54.54-.83 1.26-.83 2.03v2.35c0 .16.13.29.28.29h.43c.48 0 .87.39.87.87s-.39.87-.87.87h-.43c-1.12 0-2.03-.91-2.03-2.03v-2.35c0-1.23.48-2.38 1.35-3.26.85-.84 1.96-1.32 3.14-1.35 1.2-.04 2.37.43 3.26 1.3.93.91 1.47 2.17 1.47 3.46v2.19c.01 1.12-.9 2.03-2.02 2.03z" fill="#0d4353"/></g></g><g><path d="m21.72 49.92c0 .7-.36 1.26-.8 1.26-.45 0-.8-.56-.8-1.26s.36-1.26.8-1.26c.45-.01.8.56.8 1.26z" fill="#0d4353"/></g><g><path d="m24.06 49.92c0 .7.36 1.26.8 1.26.45 0 .8-.56.8-1.26s-.36-1.26-.8-1.26c-.44-.01-.8.56-.8 1.26z" fill="#0d4353"/></g></g><g><circle cx="43.21" cy="47.22" fill="#0d4353" r="3.34"/></g><g><circle cx="43.21" cy="47.22" fill="#fff" r="1.49"/></g></g></g></svg>