<svg id="Capa_1" enable-background="new 0 0 512 512" height="512" viewBox="0 0 512 512" width="512" xmlns="http://www.w3.org/2000/svg"><g><g><path d="m398.799 65.648-9.55-6.632c-16.399-11.388-35.888-17.491-55.853-17.491h-154.793c-19.966 0-39.454 6.103-55.853 17.491l-9.55 6.632c-16.399 11.388-35.887 17.492-55.853 17.492h-17.347c-7.034 0-12.736 5.702-12.736 12.736v374.599h457.472v-374.599c0-7.034-5.702-12.736-12.736-12.736h-17.347c-19.966 0-39.455-6.104-55.854-17.492z" fill="#78c2a4"/><path d="m472 83.14h-17.348c-19.966 0-39.454-6.103-55.853-17.491l-9.55-6.632c-16.399-11.388-35.888-17.491-55.853-17.491h-154.793c-19.966 0-39.454 6.103-55.853 17.491l-1.692 1.175h191.672c19.966 0 39.454 6.103 55.853 17.491l9.55 6.632c16.399 11.388 35.888 17.491 55.853 17.491h17.347c7.034 0 12.736 5.702 12.736 12.736v355.933h20.666v-374.599c.001-7.034-5.701-12.736-12.735-12.736z" fill="#66b394"/><path d="m73.027 209.305h365.945v261.17h-365.945z" fill="#f6f1f1"/><path d="m418.238 209.305h20.734v261.17h-20.734z" fill="#efe7e4"/><path d="m394.385 470.474h-276.77v-165.132c0-2.696 2.186-4.882 4.882-4.882h267.007c2.696 0 4.882 2.186 4.882 4.882v165.132z" fill="#cbe2ff"/><path d="m389.503 300.461h-22.303c2.696 0 4.882 2.186 4.882 4.882v165.132h22.303v-165.133c0-2.696-2.185-4.881-4.882-4.881z" fill="#bed8fb"/><g><g><path d="m256 279.31c4.142 0 7.5-3.357 7.5-7.5v-11.234h11.233c4.143 0 7.5-3.357 7.5-7.5 0-4.142-3.357-7.5-7.5-7.5h-11.233v-11.234c0-4.142-3.358-7.5-7.5-7.5s-7.5 3.358-7.5 7.5v11.234h-11.234c-4.142 0-7.5 3.358-7.5 7.5 0 4.143 3.358 7.5 7.5 7.5h11.234v11.234c0 4.142 3.358 7.5 7.5 7.5z"/></g><g><path d="m504.5 462.975h-12.264v-367.1c0-11.158-9.078-20.236-20.236-20.236h-17.347c-18.524 0-36.359-5.585-51.575-16.152l-9.55-6.632c-17.739-12.319-38.532-18.831-60.131-18.831h-90.2c-4.142 0-7.5 3.358-7.5 7.5s3.358 7.5 7.5 7.5h90.2c18.525 0 36.359 5.585 51.574 16.151l9.55 6.632c17.741 12.32 38.534 18.832 60.132 18.832h17.347c2.888 0 5.236 2.349 5.236 5.236v367.099h-30.764v-187.527c0-4.143-3.357-7.5-7.5-7.5s-7.5 3.357-7.5 7.5v187.527h-29.587v-157.631c0-6.827-5.555-12.382-12.382-12.382h-267.006c-6.827 0-12.382 5.555-12.382 12.382v65.625c0 4.143 3.358 7.5 7.5 7.5s7.5-3.357 7.5-7.5v-63.007h71.346v155.014h-71.346v-63.007c0-4.143-3.358-7.5-7.5-7.5s-7.5 3.357-7.5 7.5v63.007h-29.588v-246.17h350.945v29.642c0 4.142 3.357 7.5 7.5 7.5s7.5-3.358 7.5-7.5v-37.142c0-4.142-3.357-7.5-7.5-7.5h-365.945c-4.142 0-7.5 3.358-7.5 7.5v253.67h-30.763v-367.1c0-2.887 2.349-5.236 5.236-5.236h17.347c21.598 0 42.391-6.512 60.131-18.832l9.55-6.632c15.216-10.566 33.05-16.151 51.575-16.151h35.594c4.142 0 7.5-3.358 7.5-7.5s-3.358-7.5-7.5-7.5h-35.594c-21.598 0-42.391 6.512-60.131 18.831l-9.55 6.632c-15.216 10.567-33.05 16.153-51.575 16.153h-17.347c-11.158 0-20.236 9.078-20.236 20.236v367.099h-12.264c-4.142 0-7.5 3.357-7.5 7.5s3.358 7.5 7.5 7.5h497c4.143 0 7.5-3.357 7.5-7.5s-3.358-7.5-7.5-7.5zm-203.961-155.014v24.009h-89.078v-24.009zm-89.078 155.014v-116.005h89.078v116.005zm104.078 0v-155.014h71.347v155.014z"/></g><g><path d="m320.074 74.318h-128.148c-4.142 0-7.5 3.358-7.5 7.5s3.358 7.5 7.5 7.5h128.147c4.143 0 7.5-3.358 7.5-7.5s-3.357-7.5-7.499-7.5z"/></g></g></g><g><g><g><path d="m381.757 176.546c-14.017 0-25.42-11.403-25.42-25.42s11.403-25.42 25.42-25.42c5.094 0 10.011 1.503 14.219 4.346 3.432 2.319 4.334 6.981 2.016 10.413s-6.979 4.334-10.414 2.016c-1.719-1.161-3.731-1.775-5.82-1.775-5.745 0-10.42 4.675-10.42 10.42s4.675 10.42 10.42 10.42c2.008 0 3.594-.543 4.849-1.66.242-.216.477-.458.693-.717 2.661-3.174 7.393-3.59 10.565-.93 3.175 2.661 3.592 7.391.931 10.566-.681.812-1.425 1.58-2.211 2.28-4.013 3.574-9.139 5.461-14.828 5.461z"/></g></g><path d="m90.646 109.745h-14.424c-4.03-.079-7.569 3.477-7.5 7.5v51.802c0 4.142 3.358 7.5 7.5 7.5s7.5-3.358 7.5-7.5v-15.041c2.605-.013 5.291-.024 6.924-.024 12.354 0 22.405-9.922 22.405-22.118 0-12.197-10.051-22.119-22.405-22.119zm0 29.236c-1.622 0-4.275.011-6.864.023-.013-2.69-.03-11.436-.038-14.26h6.902c4.014 0 7.405 3.26 7.405 7.119s-3.391 7.118-7.405 7.118z"/><path d="m438.229 126.117c-3.922-1.354-8.186.724-9.539 4.638l-6.203 17.943-6.38-17.998c-1.385-3.904-5.67-5.948-9.575-4.563-3.904 1.384-5.947 5.67-4.563 9.575l12.66 35.716-4.416 12.772c-1.354 3.915.723 8.186 4.637 9.539.812.281 1.639.414 2.451.414 3.109 0 6.016-1.948 7.088-5.051l18.478-53.444c1.352-3.916-.724-8.187-4.638-9.541z"/><path d="m235.346 130.12c-2.724-3.12-7.461-3.441-10.582-.717-.019.017-.118.103-.275.244-1.267-2.346-3.748-3.941-6.602-3.941-4.142 0-7.5 3.358-7.5 7.5v35.841c0 4.142 3.358 7.5 7.5 7.5s7.5-3.358 7.5-7.5v-19.597c.16-.138.321-.275.466-.399 1.07-.91 8.707-8.288 8.779-8.351 3.118-2.724 3.438-7.461.714-10.58z"/><path d="m295.59 131.375c-3.255-3.405-7.767-5.132-13.41-5.132-4.556 0-8.525 1.314-11.693 3.66-3.687-3.125-8.121-3.846-11.42-3.846-2.783 0-5.368.543-7.703 1.545-1.35-1.308-3.187-2.117-5.215-2.117-4.142 0-7.5 3.358-7.5 7.5v36.06c0 4.142 3.358 7.5 7.5 7.5s7.5-3.358 7.5-7.5v-18.589c0-.02.003-.038.003-.058 0-4.309-.178-9.384 4.558-9.341 4.14.025 4.261 4.73 4.225 7.694.021.737.01 20.294.01 20.294 0 4.142 3.357 7.5 7.5 7.5s7.5-3.358 7.5-7.5l.01-21.077c-.073-6.113 2.76-6.726 4.294-6.726 3.701-.05 3.979 3.411 4.151 9.133-.005.113-.008 18.67-.008 18.67 0 4.142 3.357 7.5 7.5 7.5s7.5-3.358 7.5-7.5v-18.167c.247-5.788-.063-14.024-5.302-19.503z"/><path d="m156.507 150.74c.048-9.339-1.87-15.639-6.037-19.829-3.276-3.293-7.713-4.963-13.188-4.963-2.103 0-4.104.318-5.979.908v-11.254c0-4.142-3.358-7.5-7.5-7.5s-7.5 3.358-7.5 7.5v53.444c0 4.142 3.358 7.5 7.5 7.5s7.5-3.358 7.5-7.5v-18.346c0-5.742 1.358-9.805 5.136-9.752 3.573-.021 4.934 4.145 5.069 9.78l.067 18.346c.015 4.133 3.37 7.473 7.5 7.473h.028c4.142-.015 7.488-3.385 7.473-7.527z"/><path d="m199.853 125.201c-2.91 0-5.427 1.661-6.671 4.083-2.873-1.252-6.04-1.95-9.369-1.95-12.98 0-23.54 10.56-23.54 23.54s10.56 23.54 23.54 23.54c3.329 0 6.496-.699 9.369-1.95 1.243 2.422 3.761 4.083 6.671 4.083 4.142 0 7.5-3.358 7.5-7.5v-36.346c0-4.142-3.358-7.5-7.5-7.5zm-16.04 34.213c-4.709 0-8.54-3.831-8.54-8.54s3.831-8.54 8.54-8.54 8.54 3.831 8.54 8.54-3.831 8.54-8.54 8.54z"/><path d="m344.547 125.201c-2.91 0-5.428 1.661-6.671 4.083-2.873-1.252-6.04-1.95-9.369-1.95-12.979 0-23.539 10.56-23.539 23.54s10.56 23.54 23.539 23.54c3.329 0 6.496-.699 9.369-1.95 1.243 2.422 3.761 4.083 6.671 4.083 4.143 0 7.5-3.358 7.5-7.5v-36.346c0-4.142-3.357-7.5-7.5-7.5zm-16.04 34.213c-4.708 0-8.539-3.831-8.539-8.54s3.831-8.54 8.539-8.54c4.709 0 8.54 3.831 8.54 8.54s-3.831 8.54-8.54 8.54z"/></g></g></svg>